<svg width="1000" height="1000" viewBox="0 0 1000 1000" xmlns="http://www.w3.org/2000/svg"><defs/><path fill="#127ac1" transform="matrix(0.4980897389482729 0 0 0.4980897389482729 7.998149507308872 -79.30781103785681)" d="M 734.18248732923 1168.6941151327 L 732.96548732923 1169.0641151327 C 733.55048732923 1168.3801151327 734.07048732923 1167.6801151327 734.50348732923 1166.9481151327 C 737.24548732923 1162.3051151327 736.72648732923 1157.3571151327 735.10448732923 1151.3551151327 L 733.58248732923 1145.7181151327 L 731.94148732923 1146.4071151327 C 732.64948732923 1145.4721151327 733.23348732923 1144.5181151327 733.68448732923 1143.5321151327 C 735.92348732923 1138.6251151327 734.89048732923 1133.7581151327 732.64948732923 1127.9611151327 L 730.54448732923 1122.5171151327 L 728.98548732923 1123.3741151327 C 729.59348732923 1122.3691151327 730.07548732923 1121.3601151327 730.41948732923 1120.3331151327 C 732.13448732923 1115.2131151327 730.59948732923 1110.4801151327 727.76348732923 1104.9521151327 L 725.10048732923 1099.7561151327 L 723.64148732923 1100.7711151327 C 724.14248732923 1099.7081151327 724.51448732923 1098.6541151327 724.74748732923 1097.5981151327 C 725.91948732923 1092.3301151327 723.89548732923 1087.7851151327 720.49748732923 1082.5811151327 L 717.30648732923 1077.6941151327 L 715.96048732923 1078.8561151327 C 716.34748732923 1077.7471151327 716.60648732923 1076.6611151327 716.73148732923 1075.5841151327 C 717.34348732923 1070.2201151327 714.85648732923 1065.9121151327 710.93348732923 1061.0951151327 L 707.24748732923 1056.5671151327 L 706.03048732923 1057.8631151327 C 706.29848732923 1056.7201151327 706.44448732923 1055.6121151327 706.45448732923 1054.5291151327 C 706.50548732923 1049.1331151327 703.58148732923 1045.1071151327 699.17348732923 1040.7231151327 L 695.03548732923 1036.6051151327 L 693.96248732923 1038.0211151327 C 694.10848732923 1036.8571151327 694.13648732923 1035.7391151327 694.03348732923 1034.6611151327 C 693.51848732923 1029.2891151327 690.18948732923 1025.5921151327 685.34848732923 1021.6931151327 L 680.80248732923 1018.0321151327 L 679.88348732923 1019.5491151327 C 679.90648732923 1018.3781151327 679.82048732923 1017.2621151327 679.60548732923 1016.2021151327 C 678.52748732923 1010.9111151327 674.83248732923 1007.5831151327 669.61148732923 1004.2131151327 L 664.70948732923 1001.0471151327 L 663.95148732923 1002.6571151327 C 663.85248732923 1001.4881151327 663.64948732923 1000.3871151327 663.32348732923 999.3541151327 C 661.70448732923 994.2061151327 657.67748732923 991.2831151327 652.13048732923 988.4771151327 L 646.92348732923 985.8421151327 L 646.34048732923 987.5171151327 C 646.11948732923 986.3661151327 645.80348732923 985.2931151327 645.37048732923 984.3001151327 C 643.21748732923 979.3461151327 638.90748732923 976.8601151327 633.09948732923 974.6521151327 L 627.64448732923 972.5761151327 L 627.24248732923 974.3001151327 C 626.90148732923 973.1781151327 626.47448732923 972.1481151327 625.94248732923 971.2061151327 C 623.28648732923 966.5071151327 618.74048732923 964.4841151327 612.73148732923 962.8931151327 L 607.08848732923 961.3991151327 L 606.86648732923 963.1621151327 C 606.41048732923 962.0801151327 605.87848732923 961.0971151327 605.24748732923 960.2141151327 C 602.11548732923 955.8201151327 597.38548732923 954.2841151327 591.24348732923 953.3281151327 L 585.47348732923 952.4291151327 L 585.43648732923 954.2081151327 C 584.87148732923 953.1801151327 584.23948732923 952.2591151327 583.52048732923 951.4481151327 C 579.94848732923 947.4061151327 575.08248732923 946.3711151327 568.87448732923 946.0621151327 L 563.04148732923 945.7711151327 L 563.20548732923 947.7031151327 C 560.10848732923 943.2331151327 555.53248732923 941.0881151327 548.76148732923 941.0881151327 C 547.86548732923 941.0881151327 546.91448732923 941.1161151327 545.86248732923 941.1761151327 L 540.03448732923 941.5021151327 L 540.38248732923 943.3081151327 C 537.42848732923 939.8751151327 533.63748732923 938.1491151327 528.55748732923 938.1491151327 C 526.81348732923 938.1491151327 524.93748732923 938.3251151327 522.47448732923 938.7221151327 L 516.70648732923 939.6511151327 L 517.19548732923 941.2661151327 C 514.32048732923 938.5451151327 511.06048732923 937.4011151327 507.14548732923 937.4011151327 C 504.85848732923 937.4011151327 502.33248732923 937.8101151327 498.95248732923 938.7251151327 L 493.31748732923 940.2521151327 L 494.00248732923 941.8771151327 C 491.33348732923 939.8201151327 488.51148732923 938.9211151327 485.34748732923 938.9211151327 C 481.88848732923 938.9211151327 478.45948732923 940.0691151327 475.56048732923 941.1911151327 L 470.11648732923 943.2991151327 L 470.98448732923 944.8761151327 C 468.65448732923 943.4571151327 466.22548732923 942.7221151327 463.60948732923 942.7221151327 C 459.65748732923 942.7221151327 455.80648732923 944.4241151327 452.55948732923 946.0871151327 L 447.35948732923 948.7511151327 L 448.38148732923 950.2201151327 C 446.33548732923 949.2501151327 444.32648732923 948.7841151327 442.27648732923 948.7841151327 C 437.81648732923 948.7841151327 433.83148732923 950.9841151327 430.19148732923 953.3621151327 L 425.29948732923 956.5541151327 L 426.42748732923 957.8601151327 C 424.80348732923 957.3031151327 423.22748732923 957.0461151327 421.65348732923 957.0461151327 C 416.63048732923 957.0461151327 412.46148732923 959.8781151327 408.70348732923 962.9371151327 L 404.17548732923 966.6251151327 L 405.47848732923 967.8471151327 C 404.29248732923 967.5691151327 403.14248732923 967.4191151327 402.02048732923 967.4191151327 C 396.37848732923 967.4191151327 392.11348732923 970.9191151327 388.34448732923 974.7031151327 L 384.21948732923 978.8421151327 L 385.64848732923 979.9271151327 C 384.96848732923 979.8421151327 384.29848732923 979.7861151327 383.64648732923 979.7861151327 C 377.25848732923 979.7861151327 372.98448732923 983.9921151327 369.31748732923 988.5361151327 L 365.64648732923 993.0861151327 L 367.18248732923 994.0151151327 C 367.05748732923 994.0121151327 366.92848732923 993.9981151327 366.80548732923 993.9981151327 C 359.13848732923 993.9981151327 355.06348732923 999.3071151327 351.84548732923 1004.2821151327 L 348.67148732923 1009.1911151327 L 350.28048732923 1009.9471151327 C 342.44548732923 1010.5971151327 338.86248732923 1016.3521151327 336.11548732923 1021.7691151327 L 333.47148732923 1026.9821151327 L 335.15948732923 1027.5681151327 C 327.47148732923 1029.0391151327 324.48448732923 1035.0841151327 322.29948732923 1040.8001151327 L 320.21248732923 1046.2641151327 L 321.95948732923 1046.6731151327 C 314.49048732923 1048.8801151327 312.17748732923 1054.9721151327 310.54248732923 1061.1931151327 L 309.06048732923 1066.8311151327 L 310.87548732923 1067.0591151327 C 304.47648732923 1069.7211151327 302.14548732923 1075.2111151327 300.99148732923 1082.6821151327 L 300.10248732923 1088.4481151327 L 301.79748732923 1088.4811151327 C 300.96448732923 1088.9431151327 300.19848732923 1089.4511151327 299.50448732923 1090.0201151327 C 294.60448732923 1094.0251151327 293.95448732923 1099.8941151327 293.73048732923 1105.0821151327 L 293.47948732923 1110.8811151327 L 295.22048732923 1110.7331151327 C 294.25848732923 1111.4031151327 293.40948732923 1112.1311151327 292.67848732923 1112.9281151327 C 289.03248732923 1116.9091151327 288.51548732923 1121.8581151327 288.86348732923 1128.0641151327 L 289.18948732923 1133.8931151327 L 290.93148732923 1133.5591151327 C 290.04548732923 1134.3251151327 289.27748732923 1135.1361151327 288.63448732923 1136.0071151327 C 285.42448732923 1140.3421151327 285.42748732923 1145.3191151327 286.42148732923 1151.4571151327 L 287.35148732923 1157.2191151327 L 289.05148732923 1156.7041151327 C 288.25048732923 1157.5591151327 287.57148732923 1158.4471151327 287.02348732923 1159.3801151327 C 284.28548732923 1164.0321151327 284.80848732923 1168.9811151327 286.43848732923 1174.9781151327 L 287.96648732923 1180.6131151327 L 289.60148732923 1179.9241151327 C 288.89348732923 1180.8591151327 288.31148732923 1181.8121151327 287.86348732923 1182.7961151327 C 285.62748732923 1187.7111151327 286.66548732923 1192.5761151327 288.91348732923 1198.3701151327 L 291.02548732923 1203.8121151327 L 292.57448732923 1202.9581151327 C 291.97048732923 1203.9601151327 291.49148732923 1204.9671151327 291.14948732923 1205.9931151327 C 289.43948732923 1211.1111151327 290.98048732923 1215.8431151327 293.81948732923 1221.3711151327 L 296.48848732923 1226.5631151327 L 297.94648732923 1225.5461151327 C 297.44848732923 1226.6101151327 297.07548732923 1227.6631151327 296.84348732923 1228.7211151327 C 295.67548732923 1233.9881151327 297.70248732923 1238.5331151327 301.10748732923 1243.7341151327 L 304.30348732923 1248.6201151327 L 305.64548732923 1247.4591151327 C 305.26148732923 1248.5651151327 305.00248732923 1249.6521151327 304.87948732923 1250.7291151327 C 304.27148732923 1256.0901151327 306.76248732923 1260.3971151327 310.69048732923 1265.2161151327 L 314.38148732923 1269.7411151327 L 315.59248732923 1268.4481151327 C 315.32748732923 1269.5871151327 315.18248732923 1270.6941151327 315.17448732923 1271.7731151327 C 315.13148732923 1277.1711151327 318.05948732923 1281.1951151327 322.47048732923 1285.5751151327 L 326.61348732923 1289.6901151327 L 327.68148732923 1288.2771151327 C 327.53648732923 1289.4381151327 327.50848732923 1290.5531151327 327.61348732923 1291.6291151327 C 328.13348732923 1296.9991151327 331.46648732923 1300.6941151327 336.31048732923 1304.5911151327 L 340.85848732923 1308.2491151327 L 341.77948732923 1306.7261151327 C 341.75648732923 1307.9011151327 341.84548732923 1309.0161151327 342.06148732923 1310.0791151327 C 343.13948732923 1315.3651151327 346.84048732923 1318.6921151327 352.06648732923 1322.0581151327 L 356.97448732923 1325.2181151327 L 357.72548732923 1323.6161151327 C 357.82548732923 1324.7821151327 358.02948732923 1325.8781151327 358.35548732923 1326.9081151327 C 359.98148732923 1332.0531151327 364.00948732923 1334.9751151327 369.55648732923 1337.7791151327 L 374.76848732923 1340.4131151327 L 375.35148732923 1338.7321151327 C 375.57248732923 1339.8841151327 375.89148732923 1340.9541151327 376.32348732923 1341.9471151327 C 378.47548732923 1346.8951151327 382.78848732923 1349.3801151327 388.60148732923 1351.5871151327 L 394.05948732923 1353.6581151327 L 394.46348732923 1351.9291151327 C 394.80148732923 1353.0511151327 395.23048732923 1354.0811151327 395.76348732923 1355.0231151327 C 398.42648732923 1359.7191151327 402.97348732923 1361.7391151327 408.98248732923 1363.3261151327 L 414.62748732923 1364.8171151327 L 414.84648732923 1363.0561151327 C 415.30348732923 1364.1341151327 415.83748732923 1365.1161151327 416.46548732923 1365.9941151327 C 419.60248732923 1370.3871151327 424.33648732923 1371.9201151327 430.48248732923 1372.8701151327 L 436.25148732923 1373.7631151327 L 436.28448732923 1371.9921151327 C 436.85148732923 1373.0151151327 437.48448732923 1373.9341151327 438.20048732923 1374.7431151327 C 441.78048732923 1378.7821151327 446.64848732923 1379.8111151327 452.85648732923 1380.1161151327 L 458.69048732923 1380.4011151327 L 458.52548732923 1378.4751151327 C 461.61948732923 1382.9321151327 466.18748732923 1385.0691151327 472.93748732923 1385.0691151327 C 473.85448732923 1385.0691151327 474.81448732923 1385.0401151327 475.87348732923 1384.9791151327 L 481.69748732923 1384.6471151327 L 481.35048732923 1382.8411151327 C 484.30348732923 1386.2681151327 488.08848732923 1387.9891151327 493.15848732923 1387.9891151327 C 494.90748732923 1387.9891151327 496.78948732923 1387.8091151327 499.26448732923 1387.4111151327 L 505.03148732923 1386.4771151327 L 504.54148732923 1384.8631151327 C 507.41448732923 1387.5771151327 510.67148732923 1388.7171151327 514.57548732923 1388.7171151327 C 516.87348732923 1388.7171151327 519.40748732923 1388.3071151327 522.78848732923 1387.3841151327 L 528.41948732923 1385.8491151327 L 527.73848732923 1384.2361151327 C 530.40248732923 1386.2821151327 533.22048732923 1387.1781151327 536.37648732923 1387.1781151327 C 539.83848732923 1387.1781151327 543.27348732923 1386.0251151327 546.17548732923 1384.8991151327 L 551.61748732923 1382.7831151327 L 550.74748732923 1381.2071151327 C 553.07648732923 1382.6221151327 555.50148732923 1383.3531151327 558.11248732923 1383.3531151327 C 562.06848732923 1383.3531151327 565.92448732923 1381.6491151327 569.17248732923 1379.9811151327 L 574.37248732923 1377.3121151327 L 573.34848732923 1375.8461151327 C 575.39048732923 1376.8101151327 577.39348732923 1377.2741151327 579.43948732923 1377.2741151327 C 583.90548732923 1377.2741151327 587.89348732923 1375.0671151327 591.53648732923 1372.6821151327 L 596.42248732923 1369.4831151327 L 595.29548732923 1368.1821151327 C 596.91348732923 1368.7341151327 598.48548732923 1368.9931151327 600.05448732923 1368.9931151327 C 605.08348732923 1368.9931151327 609.25348732923 1366.1541151327 613.01148732923 1363.0881151327 L 617.53448732923 1359.3971151327 L 616.23448732923 1358.1801151327 C 617.41548732923 1358.4541151327 618.56048732923 1358.6021151327 619.67648732923 1358.6021151327 C 625.32748732923 1358.6021151327 629.59448732923 1355.0951151327 633.36148732923 1351.3041151327 L 637.48148732923 1347.1591151327 L 636.05548732923 1346.0811151327 C 636.72948732923 1346.1621151327 637.39248732923 1346.2191151327 638.03748732923 1346.2191151327 C 644.43348732923 1346.2191151327 648.70748732923 1342.0071151327 652.37348732923 1337.4551151327 L 656.04048732923 1332.9001151327 L 654.50848732923 1331.9761151327 C 654.62448732923 1331.9781151327 654.74648732923 1331.9911151327 654.86248732923 1331.9911151327 C 662.54348732923 1331.9911151327 666.61548732923 1326.6741151327 669.83148732923 1321.6921151327 L 673.00048732923 1316.7821151327 L 671.39148732923 1316.0271151327 C 679.22648732923 1315.3671151327 682.80248732923 1309.6101151327 685.54348732923 1304.1871151327 L 688.18348732923 1298.9731151327 L 686.49548732923 1298.3891151327 C 694.18348732923 1296.9101151327 697.16348732923 1290.8631151327 699.34348732923 1285.1421151327 L 701.42448732923 1279.6761151327 L 699.68148732923 1279.2731151327 C 707.14548732923 1277.0541151327 709.45348732923 1270.9621151327 711.08248732923 1264.7411151327 L 712.55748732923 1259.0991151327 L 710.74948732923 1258.8751151327 C 717.14248732923 1256.2041151327 719.46648732923 1250.7111151327 720.61248732923 1243.2431151327 L 721.49748732923 1237.4751151327 L 719.89248732923 1237.4431151327 C 725.26648732923 1234.4581151327 727.49948732923 1229.2351151327 727.85348732923 1220.8331151327 L 728.09748732923 1215.0361151327 L 726.36248732923 1215.1851151327 C 727.32148732923 1214.5141151327 728.16948732923 1213.7881151327 728.89948732923 1212.9901151327 C 732.53848732923 1209.0081151327 733.05148732923 1204.0571151327 732.70048732923 1197.8521151327 L 732.37248732923 1192.0221151327 L 730.62948732923 1192.3571151327 C 731.51448732923 1191.5891151327 732.28248732923 1190.7791151327 732.92448732923 1189.9081151327 C 736.12848732923 1185.5681151327 736.12148732923 1180.5911151327 735.12148732923 1174.4561151327 L 734.18248732923 1168.6941151327 Z M 717.38248732923 1178.2371151327 C 721.61148732923 1177.3961151327 725.96548732923 1176.5311151327 730.08148732923 1175.2781151327 C 730.93948732923 1180.5481151327 730.88448732923 1184.0771151327 728.81448732923 1186.8801151327 C 726.17448732923 1190.4581151327 719.90748732923 1193.0811151327 708.32348732923 1195.2621151327 C 705.57748732923 1195.5791151327 702.85148732923 1195.9871151327 700.26048732923 1196.5931151327 C 697.92248732923 1196.9321151327 695.43048732923 1197.2611151327 692.76248732923 1197.5811151327 C 692.11348732923 1189.3781151327 695.50348732923 1185.1771151327 701.79848732923 1182.4311151327 C 707.11148732923 1181.1371151327 711.65948732923 1179.8791151327 715.52948732923 1178.6141151327 C 716.14248732923 1178.4881151327 716.75048732923 1178.3631151327 717.38248732923 1178.2371151327 Z M 676.54548732923 1234.0071151327 L 675.91048732923 1238.7851151327 C 672.07748732923 1241.3681151327 669.55248732923 1245.3831151327 668.21648732923 1250.9581151327 L 667.09248732923 1255.6461151327 C 663.01848732923 1257.8281151327 660.05748732923 1261.5691151327 658.15948732923 1266.9451151327 L 656.54748732923 1271.5081151327 C 652.28548732923 1273.2471151327 648.95248732923 1276.6311151327 646.49448732923 1281.7831151327 L 644.39848732923 1286.1751151327 C 639.99548732923 1287.4891151327 636.28448732923 1290.5331151327 633.34048732923 1295.3181151327 L 630.79048732923 1299.4691151327 C 626.25248732923 1300.2901151327 622.31148732923 1302.8881151327 618.83648732923 1307.4111151327 L 615.87148732923 1311.2681151327 C 611.31148732923 1311.6311151327 607.04148732923 1313.8481151327 603.15948732923 1317.9131151327 L 599.79648732923 1321.4361151327 C 599.65048732923 1321.4321151327 599.50748732923 1321.4161151327 599.35948732923 1321.4161151327 C 594.94248732923 1321.4161151327 590.60148732923 1323.2031151327 586.46048732923 1326.7291151327 L 582.75748732923 1329.8791151327 C 582.04348732923 1329.7841151327 581.32248732923 1329.7191151327 580.58248732923 1329.7191151327 C 576.69748732923 1329.7191151327 572.88648732923 1331.0351151327 568.93148732923 1333.7441151327 L 564.93548732923 1336.4821151327 C 563.68748732923 1336.1811151327 562.38948732923 1336.0131151327 561.02448732923 1336.0131151327 C 557.70248732923 1336.0131151327 554.34648732923 1336.9541151327 550.76648732923 1338.8881151327 L 546.49648732923 1341.1941151327 C 544.76148732923 1340.5801151327 542.89248732923 1340.2261151327 540.84348732923 1340.2261151327 C 538.13348732923 1340.2261151327 535.21548732923 1340.8591151327 532.17148732923 1342.1091151327 L 527.67648732923 1343.9531151327 C 525.49448732923 1342.9131151327 523.03848732923 1342.3001151327 520.19248732923 1342.3001151327 C 518.05548732923 1342.3001151327 515.74748732923 1342.6571151327 513.33348732923 1343.3651151327 L 508.72048732923 1344.7131151327 C 506.13748732923 1343.1251151327 503.03748732923 1342.1911151327 499.20548732923 1342.1911151327 C 497.71148732923 1342.1911151327 496.11648732923 1342.3431151327 494.46148732923 1342.6461151327 L 489.67848732923 1343.5211151327 C 486.75848732923 1341.2531151327 482.99148732923 1339.8721151327 477.97948732923 1339.8721151327 C 477.26048732923 1339.8721151327 476.51748732923 1339.9001151327 475.76948732923 1339.9581151327 L 470.99048732923 1340.3241151327 C 467.94348732923 1337.3771151327 463.64248732923 1335.4971151327 457.46448732923 1335.3271151327 L 452.68548732923 1335.1951151327 C 449.96248732923 1331.9381151327 445.87748732923 1329.6171151327 439.73748732923 1328.8081151327 L 435.00948732923 1328.1861151327 C 432.64148732923 1324.6591151327 428.82148732923 1321.9191151327 422.79648732923 1320.4741151327 L 418.15848732923 1319.3611151327 C 416.17448732923 1315.6051151327 412.65948732923 1312.4811151327 406.81948732923 1310.4131151327 L 402.32448732923 1308.8211151327 C 400.74348732923 1304.8781151327 397.57448732923 1301.4051151327 391.98348732923 1298.7361151327 L 387.67548732923 1296.6811151327 C 386.51648732923 1292.5941151327 383.72748732923 1288.8131151327 378.44648732923 1285.5741151327 L 374.37848732923 1283.0801151327 C 373.65048732923 1278.8951151327 371.27448732923 1274.8411151327 366.35848732923 1271.0661151327 L 362.57848732923 1268.1631151327 C 362.29448732923 1263.9241151327 360.35248732923 1259.6431151327 355.85948732923 1255.3761151327 L 352.40048732923 1252.0931151327 C 352.56048732923 1247.8491151327 351.07948732923 1243.3861151327 347.05648732923 1238.6731151327 L 343.96148732923 1235.0481151327 C 344.56348732923 1230.8411151327 343.55748732923 1226.2501151327 340.04948732923 1221.1431151327 L 337.34848732923 1217.2111151327 C 338.38748732923 1213.0921151327 337.86748732923 1208.4211151327 334.91248732923 1202.9751151327 L 332.63548732923 1198.7801151327 C 334.09948732923 1194.7921151327 334.06948732923 1190.0921151327 331.70148732923 1184.3691151327 L 329.87748732923 1179.9631151327 C 331.75048732923 1176.1501151327 332.21348732923 1171.4721151327 330.45548732923 1165.5311151327 L 329.10148732923 1160.9551151327 C 331.36248732923 1157.3591151327 332.31148732923 1152.7551151327 331.18448732923 1146.6621151327 L 330.31848732923 1141.9761151327 C 332.94248732923 1138.6351151327 334.36848732923 1134.1561151327 333.88448732923 1127.9781151327 L 333.51148732923 1123.2221151327 C 336.47148732923 1120.1741151327 338.35748732923 1115.8681151327 338.52148732923 1109.6761151327 L 338.65348732923 1104.7691151327 C 341.83248732923 1102.0631151327 344.23748732923 1098.0261151327 345.04748732923 1091.9651151327 L 345.68648732923 1087.1901151327 C 349.52248732923 1084.6091151327 352.05248732923 1080.5971151327 353.39348732923 1075.0201151327 L 354.51948732923 1070.3351151327 C 358.59548732923 1068.1591151327 361.55848732923 1064.4211151327 363.46248732923 1059.0471151327 L 365.07948732923 1054.4831151327 C 369.34248732923 1052.7471151327 372.67848732923 1049.3681151327 375.14148732923 1044.2201151327 L 377.24248732923 1039.8301151327 C 381.64648732923 1038.5201151327 385.36148732923 1035.4781151327 388.30748732923 1030.6981151327 L 390.86548732923 1026.5501151327 C 395.40148732923 1025.7311151327 399.34348732923 1023.1351151327 402.82348732923 1018.6171151327 L 405.79248732923 1014.7631151327 C 410.35448732923 1014.4041151327 414.62948732923 1012.1901151327 418.51348732923 1008.1261151327 L 421.87148732923 1004.6101151327 C 422.02448732923 1004.6131151327 422.17548732923 1004.6311151327 422.32848732923 1004.6311151327 C 426.73848732923 1004.6311151327 431.07548732923 1002.8481151327 435.21848732923 999.3301151327 L 438.92748732923 996.1811151327 C 439.64548732923 996.2761151327 440.37148732923 996.3421151327 441.11448732923 996.3421151327 C 444.99548732923 996.3421151327 448.80248732923 995.0291151327 452.75648732923 992.3281151327 L 456.75448732923 989.5951151327 C 458.00548732923 989.8971151327 459.30848732923 990.0671151327 460.67748732923 990.0671151327 C 464.00148732923 990.0671151327 467.35448732923 989.1291151327 470.92848732923 987.1961151327 L 475.18348732923 984.8961151327 C 476.92748732923 985.5161151327 478.80448732923 985.8731151327 480.86348732923 985.8731151327 C 483.57248732923 985.8731151327 486.48748732923 985.2411151327 489.52448732923 983.9981151327 L 494.01748732923 982.1571151327 C 496.20348732923 983.2011151327 498.66548732923 983.8181151327 501.52048732923 983.8181151327 C 503.64848732923 983.8181151327 505.95248732923 983.4631151327 508.36148732923 982.7611151327 L 512.97848732923 981.4151151327 C 515.56148732923 983.0081151327 518.66748732923 983.9461151327 522.50848732923 983.9461151327 C 523.98748732923 983.9461151327 525.57748732923 983.7941151327 527.22848732923 983.4951151327 L 532.02148732923 982.6271151327 C 534.94248732923 984.9011151327 538.71448732923 986.2851151327 543.73848732923 986.2851151327 C 544.44248732923 986.2851151327 545.17748732923 986.2571151327 545.92048732923 986.2001151327 L 550.70348732923 985.8411151327 C 553.74848732923 988.7911151327 558.04748732923 990.6731151327 564.22648732923 990.8481151327 L 569.00148732923 990.9831151327 C 571.72148732923 994.2431151327 575.80548732923 996.5691151327 581.94448732923 997.3841151327 L 586.67248732923 998.0111151327 C 589.03548732923 1001.5411151327 592.85348732923 1004.2831151327 598.87648732923 1005.7351151327 L 603.51348732923 1006.8531151327 C 605.49548732923 1010.6101151327 609.00648732923 1013.7361151327 614.84448732923 1015.8111151327 L 619.33948732923 1017.4101151327 C 620.91848732923 1021.3511151327 624.08148732923 1024.8271151327 629.67148732923 1027.5001151327 L 633.97348732923 1029.5571151327 C 635.13048732923 1033.6441151327 637.91248732923 1037.4331151327 643.19548732923 1040.6771151327 L 647.25648732923 1043.1731151327 C 647.98148732923 1047.3571151327 650.35348732923 1051.4171151327 655.26648732923 1055.1941151327 L 659.04448732923 1058.1001151327 C 659.32748732923 1062.3391151327 661.26248732923 1066.6231151327 665.75348732923 1070.8931151327 L 669.20748732923 1074.1801151327 C 669.04448732923 1078.4241151327 670.52148732923 1082.8871151327 674.54148732923 1087.6031151327 L 677.63348732923 1091.2311151327 C 677.02748732923 1095.4371151327 678.02848732923 1100.0291151327 681.53248732923 1105.1431151327 L 684.22848732923 1109.0781151327 C 683.18548732923 1113.1961151327 683.70348732923 1117.8671151327 686.65548732923 1123.3171151327 L 688.92348732923 1127.5081151327 C 687.45548732923 1131.4951151327 687.48148732923 1136.1961151327 689.84548732923 1141.9251151327 L 691.66648732923 1146.3311151327 C 689.78848732923 1150.1431151327 689.32148732923 1154.8211151327 691.07348732923 1160.7641151327 L 692.42148732923 1165.3381151327 C 690.15748732923 1168.9321151327 689.20548732923 1173.5341151327 690.32748732923 1179.6301151327 L 691.14748732923 1184.0901151327 C 688.57948732923 1187.4211151327 687.18948732923 1191.8731151327 687.67448732923 1197.9861151327 L 688.05248732923 1202.7391151327 C 685.09348732923 1205.7881151327 683.21048732923 1210.0961151327 683.05348732923 1216.2911151327 L 682.92648732923 1221.2161151327 C 679.74848732923 1223.9251151327 677.34748732923 1227.9621151327 676.54548732923 1234.0071151327 Z M 309.01148732923 1167.6791151327 C 307.33048732923 1168.2441151327 305.55548732923 1168.8061151327 303.68948732923 1169.3831151327 C 299.56848732923 1170.6591151327 295.32648732923 1171.9721151327 291.36148732923 1173.6441151327 C 289.96248732923 1168.4931151327 289.65148732923 1164.9761151327 291.41948732923 1161.9721151327 C 293.67048732923 1158.1471151327 299.62348732923 1154.8881151327 310.89848732923 1151.5211151327 C 313.61848732923 1150.9181151327 316.30948732923 1150.2251151327 318.84348732923 1149.3441151327 C 321.12448732923 1148.7671151327 323.55848732923 1148.1841151327 326.16848732923 1147.5891151327 C 327.84448732923 1156.6591151327 323.96948732923 1161.2611151327 316.47248732923 1164.7821151327 C 313.76948732923 1165.7761151327 311.27748732923 1166.7401151327 309.01148732923 1167.6791151327 Z M 304.16148732923 1147.6981151327 C 299.93048732923 1148.5351151327 295.57548732923 1149.3961151327 291.45748732923 1150.6441151327 C 290.60448732923 1145.3751151327 290.66348732923 1141.8461151327 292.73648732923 1139.0441151327 C 295.37848732923 1135.4721151327 301.64348732923 1132.8541151327 313.22548732923 1130.6841151327 C 315.97348732923 1130.3691151327 318.70448732923 1129.9631151327 321.29948732923 1129.3581151327 C 323.63648732923 1129.0221151327 326.13048732923 1128.6951151327 328.79748732923 1128.3761151327 C 329.51648732923 1137.5601151327 325.19048732923 1141.7331151327 317.38048732923 1144.4501151327 C 314.56848732923 1145.1611151327 311.97148732923 1145.8661151327 309.60548732923 1146.5671151327 C 307.88248732923 1146.9501151327 306.06748732923 1147.3201151327 304.16148732923 1147.6981151327 Z M 712.54648732923 1158.6231151327 C 714.22348732923 1158.0611151327 715.99148732923 1157.5051151327 717.85048732923 1156.9321151327 C 721.97048732923 1155.6621151327 726.21248732923 1154.3541151327 730.17748732923 1152.6881151327 C 731.56948732923 1157.8391151327 731.87848732923 1161.3551151327 730.10748732923 1164.3561151327 C 728.10348732923 1167.7551151327 723.17748732923 1170.7011151327 714.19848732923 1173.6691151327 C 709.38648732923 1174.6431151327 704.48048732923 1175.7521151327 700.20748732923 1177.5651151327 C 698.64848732923 1177.9411151327 697.04748732923 1178.3211151327 695.34748732923 1178.7061151327 C 693.68048732923 1169.6451151327 697.55248732923 1165.0461151327 705.03848732923 1161.5351151327 C 707.75948732923 1160.5331151327 710.26548732923 1159.5661151327 712.54648732923 1158.6231151327 Z M 729.04048732923 1141.4151151327 C 727.19648732923 1145.4531151327 721.61548732923 1149.3111151327 710.74948732923 1153.8281151327 C 708.10348732923 1154.7101151327 705.49748732923 1155.6791151327 703.06448732923 1156.8191151327 C 700.85748732923 1157.6291151327 698.50048732923 1158.4611151327 695.96848732923 1159.3201151327 C 693.36348732923 1150.4831151327 696.73348732923 1145.5051151327 703.81248732923 1141.2291151327 C 706.41448732923 1139.9501151327 708.81048732923 1138.7251151327 710.97848732923 1137.5481151327 C 712.58548732923 1136.8161151327 714.28448732923 1136.0771151327 716.07148732923 1135.3141151327 C 720.03648732923 1133.6191151327 724.11948732923 1131.8761151327 727.88748732923 1129.8031151327 C 729.81248732923 1134.7801151327 730.48748732923 1138.2441151327 729.04048732923 1141.4151151327 Z M 725.58048732923 1118.7111151327 C 724.16748732923 1122.9241151327 719.01348732923 1127.3451151327 708.66448732923 1132.9801151327 C 706.14348732923 1134.1281151327 703.66948732923 1135.3561151327 701.38748732923 1136.7321151327 C 699.26948732923 1137.7731151327 697.00148732923 1138.8511151327 694.56448732923 1139.9761151327 C 691.04748732923 1131.4581151327 693.87848732923 1126.1541151327 700.47248732923 1121.1631151327 C 702.92548732923 1119.6211151327 705.17448732923 1118.1521151327 707.20748732923 1116.7581151327 C 708.73148732923 1115.8611151327 710.34648732923 1114.9471151327 712.04648732923 1114.0001151327 C 715.81248732923 1111.9011151327 719.68848732923 1109.7391151327 723.22048732923 1107.2841151327 C 725.65548732923 1112.0311151327 726.68648732923 1115.4061151327 725.58048732923 1118.7111151327 Z M 719.76348732923 1096.4931151327 C 718.80148732923 1100.8281151327 714.13948732923 1105.7651151327 704.43948732923 1112.4491151327 C 702.04248732923 1113.8601151327 699.69748732923 1115.3471151327 697.56048732923 1116.9641151327 C 695.57048732923 1118.2151151327 693.43848732923 1119.5181151327 691.14148732923 1120.8851151327 C 686.75448732923 1112.7811151327 689.01448732923 1107.2111151327 695.04948732923 1101.5571151327 C 697.32748732923 1099.7671151327 699.41448732923 1098.0711151327 701.29048732923 1096.4701151327 C 702.71148732923 1095.4181151327 704.22048732923 1094.3421151327 705.81148732923 1093.2211151327 C 709.33748732923 1090.7401151327 712.96648732923 1088.1841151327 716.22248732923 1085.3751151327 C 719.14048732923 1089.8421151327 720.52048732923 1093.0911151327 719.76348732923 1096.4931151327 Z M 697.44148732923 1073.2111151327 C 700.68748732923 1070.3741151327 704.03248732923 1067.4531151327 706.97348732923 1064.3171151327 C 710.34448732923 1068.4561151327 712.05348732923 1071.5421151327 711.65948732923 1075.0051151327 C 711.15348732923 1079.4151151327 707.03948732923 1084.8071151327 698.10648732923 1092.4571151327 C 695.85948732923 1094.1171151327 693.67548732923 1095.8471151327 691.71148732923 1097.6861151327 C 689.86248732923 1099.1371151327 687.87948732923 1100.6561151327 685.74048732923 1102.2541151327 C 680.52948732923 1094.6501151327 682.19948732923 1088.8721151327 687.61648732923 1082.6161151327 C 689.68648732923 1080.6041151327 691.57848732923 1078.7041151327 693.27048732923 1076.9231151327 C 694.58048732923 1075.7271151327 695.97248732923 1074.4951151327 697.44148732923 1073.2111151327 Z M 687.02148732923 1054.1851151327 C 689.95448732923 1051.0241151327 692.97448732923 1047.7691151327 695.57348732923 1044.3431151327 C 699.35648732923 1048.1071151327 701.38248732923 1050.9981151327 701.34948732923 1054.4831151327 C 701.30948732923 1058.9261151327 697.77348732923 1064.7261151327 689.67448732923 1073.2831151327 C 687.62648732923 1075.1561151327 685.64848732923 1077.0921151327 683.89848732923 1079.1141151327 C 682.20848732923 1080.7541151327 680.38848732923 1082.4751151327 678.42448732923 1084.2931151327 C 672.44748732923 1077.2781151327 673.50048732923 1071.3581151327 678.23148732923 1064.5711151327 C 680.08648732923 1062.3491151327 681.77148732923 1060.2581151327 683.27248732923 1058.3041151327 C 684.44348732923 1056.9801151327 685.69648732923 1055.6121151327 687.02148732923 1054.1851151327 Z M 674.67148732923 1036.3531151327 C 677.25948732923 1032.9011151327 679.92148732923 1029.3491151327 682.14748732923 1025.6701151327 C 686.30348732923 1029.0171151327 688.62148732923 1031.6801151327 688.95248732923 1035.1501151327 C 689.37848732923 1039.5701151327 686.46848732923 1045.7051151327 679.31348732923 1055.0571151327 C 677.47048732923 1057.1401151327 675.70148732923 1059.2761151327 674.16948732923 1061.4731151327 C 672.66048732923 1063.2791151327 671.03248732923 1065.1801151327 669.26948732923 1067.1941151327 C 662.59148732923 1060.8431151327 663.02248732923 1054.8441151327 667.01848732923 1047.5981151327 C 668.62848732923 1045.1971151327 670.08348732923 1042.9431151327 671.37248732923 1040.8471151327 C 672.39948732923 1039.4041151327 673.50348732923 1037.9121151327 674.67148732923 1036.3531151327 Z M 666.84348732923 1008.5031151327 C 671.32548732923 1011.3981151327 673.90748732923 1013.8041151327 674.60248732923 1017.2191151327 C 675.48648732923 1021.5711151327 673.23448732923 1027.9781151327 667.09648732923 1038.0281151327 C 665.47948732923 1040.2921151327 663.94448732923 1042.6011151327 662.65248732923 1044.9471151327 C 661.34048732923 1046.9001151327 659.92248732923 1048.9621151327 658.37748732923 1051.1471151327 C 651.07148732923 1045.5291151327 650.87248732923 1039.5181151327 654.08848732923 1031.8951151327 C 655.44048732923 1029.3341151327 656.65448732923 1026.9381151327 657.71748732923 1024.7151151327 C 658.58748732923 1023.1761151327 659.52848732923 1021.5791151327 660.52548732923 1019.9091151327 C 662.73448732923 1016.2071151327 665.01148732923 1012.3951151327 666.84348732923 1008.5031151327 Z M 649.82548732923 993.0331151327 C 654.58848732923 995.4421151327 657.40848732923 997.5641151327 658.45548732923 1000.8891151327 C 659.78748732923 1005.1231151327 658.22348732923 1011.7241151327 653.17348732923 1022.3531151327 C 651.79748732923 1024.7791151327 650.50748732923 1027.2451151327 649.46448732923 1029.7211151327 C 648.36548732923 1031.7981151327 647.17148732923 1033.9931151327 645.86548732923 1036.3261151327 C 638.00948732923 1031.5001151327 637.18448732923 1025.5421151327 639.59048732923 1017.6211151327 C 640.66248732923 1014.9421151327 641.61648732923 1012.4401151327 642.43848732923 1010.1241151327 C 643.14448732923 1008.4981151327 643.91648732923 1006.8041151327 644.73748732923 1005.0351151327 C 646.54848732923 1001.1221151327 648.41348732923 997.0941151327 649.82548732923 993.0331151327 Z M 640.68848732923 986.3351151327 C 642.45948732923 990.4091151327 641.58748732923 997.1461151327 637.66748732923 1008.2591151327 C 636.56348732923 1010.8001151327 635.54648732923 1013.3691151327 634.77148732923 1015.9211151327 C 633.89148732923 1018.1111151327 632.92948732923 1020.4301151327 631.87248732923 1022.8961151327 C 623.55748732923 1018.9191151327 622.11248732923 1013.0811151327 623.67448732923 1004.9531151327 C 624.46248732923 1002.1731151327 625.15148732923 999.5811151327 625.72548732923 997.1901151327 C 626.25748732923 995.5001151327 626.84748732923 993.7391151327 627.47748732923 991.8951151327 C 628.86948732923 987.8131151327 630.30448732923 983.6131151327 631.28448732923 979.4261151327 C 636.27348732923 981.3211151327 639.29848732923 983.1391151327 640.68848732923 986.3351151327 Z M 611.42448732923 967.8281151327 C 616.58348732923 969.1941151327 619.78248732923 970.6851151327 621.49848732923 973.7191151327 C 623.68348732923 977.5851151327 623.52348732923 984.3711151327 620.79148732923 995.8241151327 C 619.95348732923 998.4761151327 619.20948732923 1001.1471151327 618.70448732923 1003.7771151327 C 618.05948732923 1006.0421151327 617.34648732923 1008.4441151327 616.55448732923 1011.0011151327 C 607.87048732923 1007.9161151327 605.82348732923 1002.2621151327 606.52448732923 994.0191151327 C 607.01748732923 991.1671151327 607.43248732923 988.5161151327 607.75348732923 986.0741151327 C 608.10748732923 984.3401151327 608.50848732923 982.5271151327 608.94148732923 980.6281151327 C 609.90048732923 976.4221151327 610.88748732923 972.0961151327 611.42448732923 967.8281151327 Z M 590.45848732923 958.3721151327 C 595.73248732923 959.1931151327 599.06948732923 960.3411151327 601.09248732923 963.1781151327 C 603.67148732923 966.7961151327 604.22148732923 973.5631151327 602.70148732923 985.2431151327 C 602.14548732923 987.9681151327 601.68148732923 990.7031151327 601.45548732923 993.3741151327 C 601.05448732923 995.6921151327 600.59448732923 998.1511151327 600.07548732923 1000.7731151327 C 591.11148732923 998.6111151327 588.48448732923 993.1991151327 588.32348732923 984.9221151327 C 588.51448732923 982.0441151327 588.65148732923 979.3701151327 588.71548732923 976.9141151327 C 588.88548732923 975.1491151327 589.09548732923 973.3011151327 589.32648732923 971.3641151327 C 589.84248732923 967.0821151327 590.37048732923 962.6731151327 590.45848732923 958.3721151327 Z M 568.85348732923 964.1991151327 C 568.91648732923 959.8871151327 568.98348732923 955.4491151327 568.62048732923 951.1611151327 C 573.95148732923 951.4271151327 577.39048732923 952.2201151327 579.69748732923 954.8301151327 C 582.64048732923 958.1571151327 583.89448732923 964.8301151327 583.60448732923 976.6071151327 C 583.33648732923 979.3701151327 583.16448732923 982.1351151327 583.21448732923 984.8111151327 C 583.05648732923 987.1601151327 582.85748732923 989.6561151327 582.61448732923 992.3231151327 C 573.51748732923 991.1161151327 570.32948732923 986.0491151327 569.28748732923 977.9011151327 C 569.18248732923 974.8991151327 569.03048732923 972.0951151327 568.82248732923 969.4781151327 C 568.81348732923 967.7951151327 568.82748732923 966.0401151327 568.85348732923 964.1991151327 Z M 547.74248732923 959.2161151327 C 547.35348732923 954.9211151327 546.95548732923 950.4991151327 546.14648732923 946.2751151327 C 547.12548732923 946.2201151327 547.98148732923 946.1941151327 548.76148732923 946.1941151327 C 557.19548732923 946.1941151327 562.01448732923 948.9161151327 563.70948732923 970.0251151327 C 563.73248732923 972.7801151327 563.84848732923 975.5241151327 564.17548732923 978.1551151327 C 564.26448732923 980.5171151327 564.33148732923 983.0281151327 564.36948732923 985.7441151327 C 555.17048732923 985.4831151327 551.47748732923 980.7891151327 549.59448732923 972.7711151327 C 549.17948732923 969.8371151327 548.74048732923 967.0881151327 548.27148732923 964.5361151327 C 548.08248732923 962.8451151327 547.91048732923 961.0761151327 547.74248732923 959.2161151327 Z M 528.55648732923 943.2551151327 C 535.36648732923 943.2551151327 539.76648732923 947.0101151327 543.23048732923 965.4991151327 C 543.54248732923 968.2571151327 543.94448732923 970.9971151327 544.55348732923 973.6041151327 C 544.88648732923 975.9341151327 545.21348732923 978.4211151327 545.53448732923 981.1101151327 C 544.91548732923 981.1561151327 544.31448732923 981.1801151327 543.73648732923 981.1801151327 C 535.77448732923 981.1801151327 531.93448732923 976.6291151327 529.52748732923 969.9471151327 C 528.79648732923 967.0471151327 528.06948732923 964.3771151327 527.33948732923 961.9231151327 C 526.95548732923 960.1571151327 526.59148732923 958.3341151327 526.22248732923 956.4681151327 C 525.38848732923 952.2371151327 524.53048732923 947.8821151327 523.28448732923 943.7641151327 C 525.47248732923 943.4121151327 527.11148732923 943.2551151327 528.55648732923 943.2551151327 Z M 507.14448732923 942.5071151327 C 512.86148732923 942.5071151327 517.34548732923 946.2611151327 522.45148732923 963.4141151327 C 523.02048732923 965.9671151327 523.67848732923 968.4891151327 524.49748732923 970.8841151327 C 525.09448732923 973.2251151327 525.69948732923 975.7461151327 526.31948732923 978.4711151327 C 524.96948732923 978.7151151327 523.69148732923 978.8401151327 522.50748732923 978.8401151327 C 515.86648732923 978.8401151327 512.06248732923 974.9051151327 509.24548732923 969.0701151327 C 508.21648732923 966.2721151327 507.21948732923 963.7121151327 506.24048732923 961.3591151327 C 505.66848732923 959.6221151327 505.10748732923 957.8261151327 504.53948732923 955.9841151327 C 503.26748732923 951.8631151327 501.95648732923 947.6211151327 500.28748732923 943.6541151327 C 502.65348732923 943.0131151327 505.03648732923 942.5071151327 507.14448732923 942.5071151327 Z M 485.34648732923 944.0281151327 C 490.39848732923 944.0281151327 494.97748732923 947.5701151327 501.47248732923 963.1861151327 C 502.36748732923 965.8711151327 503.33848732923 968.4771151327 504.47248732923 970.8931151327 C 505.26348732923 973.0481151327 506.08248732923 975.3611151327 506.93248732923 977.8581151327 C 504.98648732923 978.4251151327 503.17048732923 978.7121151327 501.51848732923 978.7121151327 C 495.89348732923 978.7121151327 492.14348732923 975.3951151327 489.03448732923 970.4101151327 C 487.62048732923 967.5051151327 486.24448732923 964.7931151327 484.90048732923 962.3311151327 C 484.24248732923 960.8521151327 483.58748732923 959.3301151327 482.92148732923 957.7711151327 C 481.22448732923 953.8041151327 479.47848732923 949.7221151327 477.40248732923 945.9531151327 C 480.45048732923 944.7751151327 483.02948732923 944.0281151327 485.34648732923 944.0281151327 Z M 463.60948732923 947.8301151327 C 468.79848732923 947.8301151327 473.82048732923 952.7501151327 480.54048732923 965.0671151327 C 481.74348732923 967.7221151327 483.01348732923 970.3041151327 484.44248732923 972.6571151327 C 485.45448732923 974.7241151327 486.49848732923 976.9051151327 487.59148732923 979.2721151327 C 485.16848732923 980.2641151327 482.91048732923 980.7661151327 480.86448732923 980.7661151327 C 475.95148732923 980.7661151327 472.17448732923 977.8081151327 468.83048732923 973.4741151327 C 467.27848732923 971.0061151327 465.79948732923 968.7511151327 464.38748732923 966.7011151327 C 463.45848732923 965.1121151327 462.53748732923 963.4711151327 461.61048732923 961.8071151327 C 459.50848732923 958.0401151327 457.34448732923 954.1631151327 454.88748732923 950.6321151327 C 458.22948732923 948.9201151327 461.05448732923 947.8301151327 463.60948732923 947.8301151327 Z M 442.27648732923 953.8921151327 C 447.11848732923 953.8921151327 452.47948732923 958.4271151327 460.03348732923 969.3631151327 C 461.47248732923 971.8151151327 462.97148732923 974.1821151327 464.59748732923 976.3271151327 C 465.84548732923 978.3111151327 467.13848732923 980.4181151327 468.50048732923 982.7041151327 C 465.69348732923 984.2221151327 463.12248732923 984.9611151327 460.67748732923 984.9611151327 C 456.37548732923 984.9611151327 452.70548732923 982.5321151327 449.26648732923 978.9271151327 C 447.38848732923 976.5351151327 445.61648732923 974.3591151327 443.94748732923 972.4061151327 C 442.91048732923 970.9921151327 441.87648732923 969.5301151327 440.83448732923 968.0491151327 C 438.35048732923 964.5231151327 435.79348732923 960.8941151327 432.98048732923 957.6381151327 C 436.56548732923 955.2991151327 439.46648732923 953.8921151327 442.27648732923 953.8921151327 Z M 420.82848732923 976.4291151327 C 417.98848732923 973.1841151327 415.06548732923 969.8401151327 411.92648732923 966.8971151327 C 415.64048732923 963.8731151327 418.55148732923 962.1531151327 421.65248732923 962.1531151327 C 426.29048732923 962.1531151327 431.84048732923 966.1311151327 440.00248732923 975.6541151327 C 441.71148732923 977.9771151327 443.47548732923 980.2051151327 445.34448732923 982.1951151327 C 446.78348732923 984.0311151327 448.28548732923 985.9881151327 449.87448732923 988.1121151327 C 446.80148732923 990.2131151327 443.92348732923 991.2361151327 441.11448732923 991.2361151327 C 437.32048732923 991.2361151327 433.80748732923 989.3051151327 430.37948732923 986.3961151327 C 428.26448732923 984.2161151327 426.27148732923 982.2351151327 424.40748732923 980.4721151327 C 423.22148732923 979.1651151327 422.03248732923 977.8051151327 420.82848732923 976.4291151327 Z M 401.80348732923 986.8551151327 C 398.64148732923 983.9241151327 395.38648732923 980.9061151327 391.95948732923 978.3081151327 C 395.63048732923 974.6241151327 398.59148732923 972.5271151327 402.01948732923 972.5271151327 C 406.47148732923 972.5271151327 412.29148732923 976.0581151327 420.89748732923 984.1951151327 C 422.80848732923 986.2841151327 424.75848732923 988.2761151327 426.78848732923 990.0261151327 C 428.41148732923 991.6971151327 430.11548732923 993.4951151327 431.91448732923 995.4381151327 C 428.67848732923 998.1851151327 425.52948732923 999.5251151327 422.32848732923 999.5251151327 C 419.00448732923 999.5251151327 415.72948732923 998.0711151327 412.43748732923 995.8371151327 C 410.01548732923 993.8101151327 407.77348732923 992.0091151327 405.67848732923 990.4051151327 C 404.39848732923 989.2591151327 403.10648732923 988.0631151327 401.80348732923 986.8551151327 Z M 383.97948732923 999.2161151327 C 380.52748732923 996.6311151327 376.97348732923 993.9701151327 373.29148732923 991.7441151327 C 376.88848732923 987.2871151327 379.77048732923 984.8921151327 383.64748732923 984.8921151327 C 387.98048732923 984.8921151327 393.81548732923 987.7851151327 402.51648732923 994.4251151327 C 404.80148732923 996.4631151327 407.08148732923 998.3561151327 409.40248732923 999.9521151327 C 411.11648732923 1001.3901151327 412.91848732923 1002.9311151327 414.82248732923 1004.5981151327 C 411.52548732923 1008.0491151327 408.12948732923 1009.7311151327 404.47648732923 1009.7311151327 C 401.54648732923 1009.7311151327 398.54048732923 1008.6711151327 395.45548732923 1007.0141151327 C 392.96648732923 1005.3461151327 390.66348732923 1003.8721151327 388.49648732923 1002.5481151327 C 387.00748732923 1001.4801151327 385.50248732923 1000.3561151327 383.97948732923 999.2161151327 Z M 366.80548732923 999.1051151327 C 371.01548732923 999.1051151327 376.91948732923 1001.4641151327 385.55248732923 1006.7221151327 C 388.00248732923 1008.4831151327 390.43148732923 1010.1051151327 392.87248732923 1011.4311151327 C 394.73848732923 1012.6841151327 396.70248732923 1014.0381151327 398.77948732923 1015.5021151327 C 395.50048732923 1019.7591151327 391.94548732923 1021.7551151327 387.68448732923 1021.7551151327 C 385.12648732923 1021.7551151327 382.43348732923 1021.0111151327 379.64248732923 1019.8581151327 C 376.96748732923 1018.4451151327 374.48148732923 1017.1881151327 372.18648732923 1016.0961151327 C 370.65748732923 1015.2221151327 369.11248732923 1014.3061151327 367.54148732923 1013.3691151327 C 363.83748732923 1011.1591151327 360.02548732923 1008.8841151327 356.13248732923 1007.0561151327 C 359.54448732923 1001.7801151327 362.33448732923 999.1051151327 366.80548732923 999.1051151327 Z M 351.78148732923 1014.9871151327 C 355.91848732923 1014.9871151327 361.63548732923 1016.7521151327 369.85348732923 1020.6461151327 C 372.49548732923 1022.1531151327 375.09748732923 1023.5241151327 377.68048732923 1024.5941151327 C 379.66048732923 1025.6441151327 381.74648732923 1026.7781151327 383.96448732923 1028.0171151327 C 380.83348732923 1033.0971151327 377.01748732923 1035.4761151327 372.05148732923 1035.4761151327 C 369.98148732923 1035.4761151327 367.78948732923 1035.0661151327 365.50948732923 1034.4011151327 C 362.66748732923 1033.2631151327 360.04748732923 1032.2691151327 357.62848732923 1031.4171151327 C 356.00548732923 1030.7001151327 354.35348732923 1029.9391151327 352.67648732923 1029.1641151327 C 348.76348732923 1027.3541151327 344.73448732923 1025.4901151327 340.66948732923 1024.0801151327 C 343.78748732923 1017.9281151327 346.48648732923 1014.9871151327 351.78148732923 1014.9871151327 Z M 338.91048732923 1032.3351151327 C 342.88248732923 1032.3351151327 348.32448732923 1033.5641151327 355.80048732923 1036.1901151327 C 358.52748732923 1037.3861151327 361.19748732923 1038.4451151327 363.82248732923 1039.2281151327 C 365.93848732923 1040.0771151327 368.16348732923 1040.9991151327 370.53948732923 1042.0161151327 C 367.64948732923 1048.0571151327 363.60948732923 1050.7721151327 357.61448732923 1050.7721151327 C 356.08048732923 1050.7721151327 354.46548732923 1050.5811151327 352.79948732923 1050.2781151327 C 349.87948732923 1049.4501151327 347.19748732923 1048.7461151327 344.72348732923 1048.1541151327 C 343.02648732923 1047.6121151327 341.29848732923 1047.0261151327 339.54248732923 1046.4271151327 C 335.45948732923 1045.0361151327 331.25848732923 1043.6041151327 327.06948732923 1042.6251151327 C 329.78248732923 1035.5291151327 332.41848732923 1032.3351151327 338.91048732923 1032.3351151327 Z M 328.66848732923 1050.9001151327 C 332.37248732923 1050.9001151327 337.11448732923 1051.5931151327 343.30248732923 1053.0601151327 C 346.14948732923 1053.9711151327 348.91948732923 1054.7421151327 351.61748732923 1055.2481151327 C 353.82048732923 1055.8751151327 356.15448732923 1056.5691151327 358.65348732923 1057.3421151327 C 356.13248732923 1064.4571151327 351.75948732923 1067.5221151327 344.28648732923 1067.5221151327 C 343.49548732923 1067.5221151327 342.68148732923 1067.4771151327 341.85548732923 1067.4161151327 C 338.87448732923 1066.8991151327 336.11748732923 1066.4701151327 333.60648732923 1066.1451151327 C 331.87048732923 1065.7831151327 330.09548732923 1065.3841151327 328.28548732923 1064.9721151327 C 324.07948732923 1064.0151151327 319.74848732923 1063.0301151327 315.47848732923 1062.4941151327 C 317.54848732923 1054.6221151327 319.95048732923 1050.9001151327 328.66848732923 1050.9001151327 Z M 321.93148732923 1070.3641151327 C 324.93248732923 1070.3641151327 328.50448732923 1070.6341151327 332.76848732923 1071.1831151327 C 335.66348732923 1071.7821151327 338.47348732923 1072.2611151327 341.19948732923 1072.4811151327 C 343.46448732923 1072.8771151327 345.85048732923 1073.3151151327 348.43148732923 1073.8251151327 C 346.50748732923 1081.8291151327 341.83848732923 1085.3191151327 332.80648732923 1085.5981151327 C 329.79248732923 1085.3971151327 327.04448732923 1085.2661151327 324.52848732923 1085.2021151327 C 322.73848732923 1085.0221151327 320.91048732923 1084.8121151327 319.02848732923 1084.5871151327 C 314.74948732923 1084.0751151327 310.33748732923 1083.5481151327 306.03548732923 1083.4621151327 C 307.43848732923 1074.3781151327 309.91048732923 1070.3641151327 321.93148732923 1070.3641151327 Z M 316.65248732923 1105.1121151327 C 315.08248732923 1105.1121151327 313.48348732923 1105.0891151327 311.87348732923 1105.0661151327 C 310.21948732923 1105.0431151327 308.55348732923 1105.0191151327 306.88848732923 1105.0191151327 C 303.70648732923 1105.0191151327 301.13548732923 1105.1091151327 298.82948732923 1105.3051151327 C 299.26748732923 1095.1521151327 301.37148732923 1090.2601151327 321.12748732923 1090.2601151327 C 322.10948732923 1090.2601151327 323.14848732923 1090.2771151327 324.21748732923 1090.3021151327 C 326.74848732923 1090.5531151327 329.21148732923 1090.7321151327 331.60748732923 1090.7321151327 C 331.96148732923 1090.7321151327 332.29548732923 1090.7131151327 332.64048732923 1090.7061151327 C 334.93048732923 1090.8601151327 337.36948732923 1091.0531151327 339.99048732923 1091.2911151327 C 338.80848732923 1100.1461151327 333.85748732923 1103.5361151327 325.39748732923 1104.6411151327 C 322.47148732923 1104.7561151327 319.76748732923 1104.9071151327 317.28848732923 1105.1061151327 C 317.07448732923 1105.1071151327 316.87048732923 1105.1121151327 316.65248732923 1105.1121151327 Z M 306.90048732923 1126.1811151327 C 302.60548732923 1126.5711151327 298.18348732923 1126.9721151327 293.95948732923 1127.7831151327 C 293.66148732923 1122.4541151327 294.08848732923 1118.9501151327 296.44348732923 1116.3791151327 C 299.43348732923 1113.1151151327 305.90448732923 1111.1681151327 317.57048732923 1110.2161151327 C 320.13548732923 1110.2111151327 323.20848732923 1110.1591151327 326.36048732923 1109.7171151327 C 328.58048732923 1109.6361151327 330.92048732923 1109.5741151327 333.42248732923 1109.5391151327 C 333.17648732923 1118.7541151327 328.43148732923 1122.4521151327 320.36848732923 1124.3361151327 C 317.50948732923 1124.7481151327 314.86348732923 1125.1741151327 312.44648732923 1125.6221151327 C 310.68748732923 1125.8251151327 308.83948732923 1126.0051151327 306.90048732923 1126.1811151327 Z M 292.50848732923 1184.9131151327 C 294.35048732923 1180.8661151327 299.94048732923 1177.0011151327 310.82848732923 1172.4671151327 C 313.44448732923 1171.5901151327 316.02148732923 1170.6291151327 318.42948732923 1169.5011151327 C 320.64848732923 1168.6851151327 323.01748732923 1167.8461151327 325.56248732923 1166.9791151327 C 328.17648732923 1175.8151151327 324.80848732923 1180.7971151327 317.72948732923 1185.0801151327 C 315.13048732923 1186.3591151327 312.74148732923 1187.5861151327 310.57848732923 1188.7621151327 C 308.96948732923 1189.4951151327 307.27148732923 1190.2371151327 305.48548732923 1191.0021151327 C 301.52048732923 1192.7001151327 297.43948732923 1194.4501151327 293.67248732923 1196.5271151327 C 291.74048732923 1191.5501151327 291.06448732923 1188.0851151327 292.50848732923 1184.9131151327 Z M 295.98948732923 1207.6131151327 C 297.39748732923 1203.4021151327 302.54348732923 1198.9751151327 312.87348732923 1193.3371151327 C 315.40648732923 1192.1831151327 317.89248732923 1190.9461151327 320.18648732923 1189.5591151327 C 322.29848732923 1188.5211151327 324.55848732923 1187.4441151327 326.98648732923 1186.3201151327 C 330.51348732923 1194.8431151327 327.67748732923 1200.1531151327 321.07248732923 1205.1561151327 C 318.63648732923 1206.6901151327 316.40148732923 1208.1521151327 314.38048732923 1209.5401151327 C 312.85348732923 1210.4421151327 311.23448732923 1211.3611151327 309.53048732923 1212.3131151327 C 305.76448732923 1214.4171151327 301.88848732923 1216.5821151327 298.35848732923 1219.0421151327 C 295.91948732923 1214.2931151327 294.88448732923 1210.9181151327 295.98948732923 1207.6131151327 Z M 301.82548732923 1229.8251151327 C 302.78348732923 1225.4861151327 307.44848732923 1220.5431151327 317.15448732923 1213.8441151327 C 319.52948732923 1212.4441151327 321.85048732923 1210.9681151327 323.96748732923 1209.3651151327 C 325.96948732923 1208.1041151327 328.11648732923 1206.7901151327 330.42748732923 1205.4101151327 C 334.82248732923 1213.5141151327 332.56048732923 1219.0901151327 326.51948732923 1224.7521151327 C 324.25648732923 1226.5351151327 322.18248732923 1228.2241151327 320.31748732923 1229.8191151327 C 318.89248732923 1230.8741151327 317.37848732923 1231.9571151327 315.78248732923 1233.0831151327 C 312.25848732923 1235.5681151327 308.62848732923 1238.1271151327 305.37548732923 1240.9421151327 C 302.45348732923 1236.4761151327 301.07148732923 1233.2281151327 301.82548732923 1229.8251151327 Z M 324.17548732923 1253.0831151327 C 320.92848732923 1255.9251151327 317.58748732923 1258.8521151327 314.64548732923 1261.9921151327 C 311.27248732923 1257.8531151327 309.55748732923 1254.7691151327 309.95148732923 1251.3041151327 C 310.45148732923 1246.8921151327 314.57148732923 1241.4901151327 323.51348732923 1233.8191151327 C 325.74148732923 1232.1691151327 327.90648732923 1230.4511151327 329.85448732923 1228.6241151327 C 331.70848732923 1227.1661151327 333.69948732923 1225.6391151327 335.84448732923 1224.0321151327 C 341.06348732923 1231.6321151327 339.39648732923 1237.4141151327 333.98048732923 1243.6781151327 C 331.91548732923 1245.6891151327 330.02648732923 1247.5861151327 328.33848732923 1249.3671151327 C 327.03148732923 1250.5661151327 325.64248732923 1251.7991151327 324.17548732923 1253.0831151327 Z M 334.60948732923 1272.1021151327 C 331.67948732923 1275.2661151327 328.66148732923 1278.5251151327 326.06448732923 1281.9561151327 C 322.27748732923 1278.1961151327 320.24848732923 1275.3061151327 320.27648732923 1271.8201151327 C 320.31548732923 1267.3781151327 323.84648732923 1261.5741151327 331.94048732923 1253.0071151327 C 333.98148732923 1251.1371151327 335.95248732923 1249.2021151327 337.69648732923 1247.1831151327 C 339.38848732923 1245.5391151327 341.20948732923 1243.8121151327 343.17648732923 1241.9891151327 C 349.16248732923 1248.9991151327 348.10848732923 1254.9241151327 343.37748732923 1261.7211151327 C 341.53148732923 1263.9381151327 339.85148732923 1266.0261151327 338.35748732923 1267.9741151327 C 337.18448732923 1269.3021151327 335.93148732923 1270.6721151327 334.60948732923 1272.1021151327 Z M 346.97448732923 1289.9231151327 C 344.39048732923 1293.3771151327 341.73248732923 1296.9331151327 339.50748732923 1300.6141151327 C 335.34748732923 1297.2681151327 333.02848732923 1294.6081151327 332.69348732923 1291.1381151327 C 332.26648732923 1286.7191151327 335.16948732923 1280.5781151327 342.31848732923 1271.2191151327 C 344.15448732923 1269.1401151327 345.91648732923 1267.0071151327 347.44348732923 1264.8161151327 C 348.95148732923 1263.0041151327 350.58048732923 1261.0971151327 352.34648732923 1259.0791151327 C 359.02848732923 1265.4221151327 358.60448732923 1271.4191151327 354.61948732923 1278.6651151327 C 353.00748732923 1281.0731151327 351.55048732923 1283.3331151327 350.26448732923 1285.4361151327 C 349.23948732923 1286.8761151327 348.13948732923 1288.3651151327 346.97448732923 1289.9231151327 Z M 354.83048732923 1317.7681151327 C 350.34148732923 1314.8771151327 347.75748732923 1312.4731151327 347.06148732923 1309.0571151327 C 346.17248732923 1304.7051151327 348.41648732923 1298.2981151327 354.54748732923 1288.2441151327 C 356.16048732923 1285.9791151327 357.69448732923 1283.6671151327 358.98548732923 1281.3191151327 C 360.29448732923 1279.3651151327 361.71248732923 1277.3021151327 363.25248732923 1275.1161151327 C 370.56848732923 1280.7331151327 370.76948732923 1286.7451151327 367.55248732923 1294.3811151327 C 366.20948732923 1296.9301151327 365.00348732923 1299.3181151327 363.94648732923 1301.5331151327 C 363.07548732923 1303.0761151327 362.13548732923 1304.6781151327 361.13648732923 1306.3521151327 C 358.92948732923 1310.0581151327 356.65648732923 1313.8731151327 354.83048732923 1317.7681151327 Z M 371.85848732923 1333.2251151327 C 367.09448732923 1330.8181151327 364.27348732923 1328.6971151327 363.22348732923 1325.3731151327 C 361.88548732923 1321.1361151327 363.44948732923 1314.5291151327 368.49548732923 1303.8861151327 C 369.85948732923 1301.4721151327 371.13848732923 1299.0191151327 372.17548732923 1296.5571151327 C 373.27448732923 1294.4721151327 374.47148732923 1292.2681151327 375.77848732923 1289.9271151327 C 383.64348732923 1294.7481151327 384.46948732923 1300.7071151327 382.06848732923 1308.6411151327 C 381.00148732923 1311.3091151327 380.05248732923 1313.8041151327 379.23548732923 1316.1141151327 C 378.52948732923 1317.7421151327 377.76048732923 1319.4381151327 376.93948732923 1321.2131151327 C 375.13148732923 1325.1291151327 373.26748732923 1329.1601151327 371.85848732923 1333.2251151327 Z M 381.00248732923 1339.9091151327 C 379.22848732923 1335.8331151327 380.09348732923 1329.0921151327 384.00848732923 1317.9661151327 C 385.10548732923 1315.4351151327 386.11348732923 1312.8771151327 386.88448732923 1310.3371151327 C 387.76148732923 1308.1421151327 388.72548732923 1305.8161151327 389.78448732923 1303.3451151327 C 398.10448732923 1307.3151151327 399.55348732923 1313.1541151327 397.99648732923 1321.2851151327 C 397.21148732923 1324.0641151327 396.52548732923 1326.6531151327 395.95448732923 1329.0401151327 C 395.42448732923 1330.7301151327 394.83848732923 1332.4921151327 394.20948732923 1334.3371151327 C 392.82048732923 1338.4211151327 391.38948732923 1342.6251151327 390.41248732923 1346.8161151327 C 385.42348732923 1344.9221151327 382.39348732923 1343.1071151327 381.00248732923 1339.9091151327 Z M 410.28548732923 1358.3941151327 C 405.12348732923 1357.0311151327 401.92348732923 1355.5411151327 400.20548732923 1352.5091151327 C 398.01648732923 1348.6441151327 398.16948732923 1341.8551151327 400.89348732923 1330.3941151327 C 401.72448732923 1327.7491151327 402.46548732923 1325.0891151327 402.96748732923 1322.4691151327 C 403.61048732923 1320.1981151327 404.32348732923 1317.7891151327 405.11648732923 1315.2261151327 C 413.80648732923 1318.3051151327 415.85548732923 1323.9591151327 415.15848732923 1332.2131151327 C 414.66948732923 1335.0541151327 414.25948732923 1337.6991151327 413.93848732923 1340.1361151327 C 413.58748732923 1341.8721151327 413.18848732923 1343.6871151327 412.75648732923 1345.5881151327 C 411.80148732923 1349.7941151327 410.81848732923 1354.1241151327 410.28548732923 1358.3941151327 Z M 431.26148732923 1367.8271151327 C 425.98548732923 1367.0131151327 422.64548732923 1365.8671151327 420.61948732923 1363.0301151327 C 418.03648732923 1359.4151151327 417.48248732923 1352.6461151327 418.99248732923 1340.9651151327 C 419.54248732923 1338.2481151327 420.00148732923 1335.5231151327 420.22548732923 1332.8611151327 C 420.62748732923 1330.5391151327 421.08648732923 1328.0711151327 421.60448732923 1325.4391151327 C 430.57148732923 1327.5901151327 433.19948732923 1333.0021151327 433.36948732923 1341.2831151327 C 433.18048732923 1344.1611151327 433.04948732923 1346.8311151327 432.98548732923 1349.2861151327 C 432.81748732923 1351.0511151327 432.60848732923 1352.8961151327 432.37948732923 1354.8341151327 C 431.86848732923 1359.1171151327 431.34448732923 1363.5261151327 431.26148732923 1367.8271151327 Z M 452.85948732923 1361.9791151327 C 452.79948732923 1366.2921151327 452.73848732923 1370.7331151327 453.10548732923 1375.0201151327 C 447.77348732923 1374.7591151327 444.33348732923 1373.9701151327 442.02248732923 1371.3611151327 C 439.07548732923 1368.0351151327 437.81648732923 1361.3611151327 438.09748732923 1349.5821151327 C 438.36248732923 1346.8231151327 438.53148732923 1344.0651151327 438.47848732923 1341.3941151327 C 438.63448732923 1339.0411151327 438.83048732923 1336.5401151327 439.07148732923 1333.8711151327 C 448.17248732923 1335.0681151327 451.36348732923 1340.1371151327 452.41248732923 1348.2881151327 C 452.52048732923 1351.2861151327 452.67548732923 1354.0881151327 452.88348732923 1356.7001151327 C 452.89648732923 1358.3831151327 452.88448732923 1360.1381151327 452.85948732923 1361.9791151327 Z M 473.97448732923 1366.9421151327 C 474.36648732923 1371.2381151327 474.76948732923 1375.6611151327 475.58248732923 1379.8851151327 C 474.59148732923 1379.9421151327 473.72648732923 1379.9671151327 472.93648732923 1379.9671151327 C 464.52448732923 1379.9671151327 459.70948732923 1377.2481151327 457.99648732923 1356.1721151327 C 457.97148732923 1353.4061151327 457.85248732923 1350.6501151327 457.52248732923 1348.0041151327 C 457.43048732923 1345.6481151327 457.36048732923 1343.1421151327 457.32048732923 1340.4301151327 C 466.51848732923 1340.6841151327 470.21648732923 1345.3771151327 472.10648732923 1353.3931151327 C 472.52348732923 1356.3291151327 472.96548732923 1359.0771151327 473.43748732923 1361.6281151327 C 473.63248732923 1363.3181151327 473.80548732923 1365.0821151327 473.97448732923 1366.9421151327 Z M 493.15848732923 1382.8881151327 C 486.35648732923 1382.8881151327 481.96048732923 1379.1371151327 478.48248732923 1360.6751151327 C 478.16648732923 1357.9071151327 477.75948732923 1355.1601151327 477.14848732923 1352.5491151327 C 476.81348732923 1350.2191151327 476.48248732923 1347.7331151327 476.15948732923 1345.0471151327 C 476.78748732923 1344.9991151327 477.39448732923 1344.9761151327 477.97848732923 1344.9761151327 C 485.91748732923 1344.9761151327 489.75848732923 1349.5131151327 492.17048732923 1356.1751151327 C 492.90648732923 1359.0881151327 493.64048732923 1361.7681151327 494.37448732923 1364.2311151327 C 494.75848732923 1365.9921151327 495.12348732923 1367.8101151327 495.49248732923 1369.6701151327 C 496.33348732923 1373.9011151327 497.19548732923 1378.2581151327 498.44748732923 1382.3741151327 C 496.25048732923 1382.7301151327 494.60748732923 1382.8881151327 493.15848732923 1382.8881151327 Z M 514.57548732923 1383.6151151327 C 508.86348732923 1383.6151151327 504.38048732923 1379.8651151327 499.26248732923 1362.7261151327 C 498.68848732923 1360.1681151327 498.02948732923 1357.6451151327 497.20548732923 1355.2471151327 C 496.60848732923 1352.9071151327 495.99948732923 1350.3921151327 495.37848732923 1347.6691151327 C 496.73348732923 1347.4211151327 498.01548732923 1347.2961151327 499.20548732923 1347.2961151327 C 505.83948732923 1347.2961151327 509.64448732923 1351.2311151327 512.46748732923 1357.0661151327 C 513.49448732923 1359.8561151327 514.49348732923 1362.4111151327 515.47148732923 1364.7591151327 C 516.04648732923 1366.4951151327 516.60648732923 1368.2911151327 517.17848732923 1370.1331151327 C 518.45648732923 1374.2551151327 519.77148732923 1378.4971151327 521.44648732923 1382.4621151327 C 519.07448732923 1383.1091151327 516.68848732923 1383.6151151327 514.57548732923 1383.6151151327 Z M 536.37648732923 1382.0771151327 C 531.32648732923 1382.0771151327 526.74448732923 1378.5371151327 520.24148732923 1362.9371151327 C 519.34348732923 1360.2531151327 518.36948732923 1357.6481151327 517.23248732923 1355.2321151327 C 516.44048732923 1353.0771151327 515.61948732923 1350.7631151327 514.76548732923 1348.2641151327 C 516.71448732923 1347.6951151327 518.53548732923 1347.4051151327 520.19248732923 1347.4051151327 C 525.80848732923 1347.4051151327 529.55948732923 1350.7171151327 532.67048732923 1355.6961151327 C 534.08848732923 1358.6001151327 535.46648732923 1361.3121151327 536.81648732923 1363.7781151327 C 537.47348732923 1365.2521151327 538.12848732923 1366.7741151327 538.79648732923 1368.3301151327 C 540.49748732923 1372.2951151327 542.24748732923 1376.3751151327 544.32648732923 1380.1431151327 C 541.27748732923 1381.3271151327 538.69548732923 1382.0771151327 536.37648732923 1382.0771151327 Z M 558.11248732923 1378.2521151327 C 552.92148732923 1378.2521151327 547.89348732923 1373.3281151327 541.15748732923 1361.0031151327 C 539.95848732923 1358.3681151327 538.69748732923 1355.8081151327 537.27748732923 1353.4751151327 C 536.25848732923 1351.3991151327 535.21048732923 1349.2121151327 534.10848732923 1346.8331151327 C 536.53548732923 1345.8371151327 538.79548732923 1345.3321151327 540.84348732923 1345.3321151327 C 545.75148732923 1345.3321151327 549.53148732923 1348.2871151327 552.87548732923 1352.6191151327 C 554.43348732923 1355.0851151327 555.91148732923 1357.3381151327 557.32648732923 1359.3891151327 C 558.25648732923 1360.9741151327 559.17548732923 1362.6131151327 560.10348732923 1364.2721151327 C 562.20948732923 1368.0381151327 564.37648732923 1371.9131151327 566.83948732923 1375.4421151327 C 563.49448732923 1377.1601151327 560.66848732923 1378.2521151327 558.11248732923 1378.2521151327 Z M 579.43848732923 1372.1711151327 C 574.59548732923 1372.1711151327 569.23148732923 1367.6401151327 561.67048732923 1356.7121151327 C 560.23348732923 1354.2691151327 558.73648732923 1351.9141151327 557.11748732923 1349.7781151327 C 555.86348732923 1347.7881151327 554.56148732923 1345.6741151327 553.19248732923 1343.3811151327 C 556.00348732923 1341.8621151327 558.57648732923 1341.1191151327 561.02348732923 1341.1191151327 C 565.32648732923 1341.1191151327 569.00048732923 1343.5531151327 572.44248732923 1347.1571151327 C 574.31648732923 1349.5381151327 576.08448732923 1351.7061151327 577.75048732923 1353.6521151327 C 578.78948732923 1355.0651151327 579.82648732923 1356.5301151327 580.87148732923 1358.0091151327 C 583.35948732923 1361.5341151327 585.92148732923 1365.1621151327 588.73848732923 1368.4141151327 C 585.15448732923 1370.7601151327 582.25048732923 1372.1711151327 579.43848732923 1372.1711151327 Z M 600.87248732923 1349.6101151327 C 603.71448732923 1352.8551151327 606.64248732923 1356.1951151327 609.78248732923 1359.1351151327 C 606.06848732923 1362.1651151327 603.15748732923 1363.8891151327 600.05348732923 1363.8891151327 C 595.41648732923 1363.8891151327 589.86448732923 1359.9141151327 581.69248732923 1350.3981151327 C 579.98748732923 1348.0871151327 578.22948732923 1345.8691151327 576.36648732923 1343.8881151327 C 574.92148732923 1342.0501151327 573.41248732923 1340.0851151327 571.81748732923 1337.9561151327 C 574.89048732923 1335.8521151327 577.77248732923 1334.8241151327 580.58448732923 1334.8241151327 C 584.37448732923 1334.8241151327 587.88748732923 1336.7531151327 591.31848732923 1339.6601151327 C 593.43748732923 1341.8371151327 595.42848732923 1343.8161151327 597.29548732923 1345.5781151327 C 598.48048732923 1346.8821151327 599.67148732923 1348.2401151327 600.87248732923 1349.6101151327 Z M 619.88248732923 1339.1671151327 C 623.04948732923 1342.0951151327 626.31048732923 1345.1111151327 629.74048732923 1347.7061151327 C 626.07048732923 1351.3981151327 623.10848732923 1353.4991151327 619.67648732923 1353.4991151327 C 615.23048732923 1353.4991151327 609.41248732923 1349.9781151327 600.81848732923 1341.8691151327 C 598.89548732923 1339.7701151327 596.92948732923 1337.7661151327 594.88548732923 1336.0091151327 C 593.26348732923 1334.3421151327 591.56548732923 1332.5531151327 589.77048732923 1330.6161151327 C 593.00448732923 1327.8621151327 596.15648732923 1326.5191151327 599.36148732923 1326.5191151327 C 602.69148732923 1326.5191151327 605.97248732923 1327.9781151327 609.27348732923 1330.2171151327 C 611.67548732923 1332.2231151327 613.90148732923 1334.0061151327 615.98348732923 1335.5991151327 C 617.26948732923 1336.7511151327 618.56948732923 1337.9521151327 619.88248732923 1339.1671151327 Z M 637.69648732923 1326.7931151327 C 641.15248732923 1329.3751151327 644.71148732923 1332.0331151327 648.39648732923 1334.2551151327 C 644.80148732923 1338.7181151327 641.91748732923 1341.1161151327 638.03748732923 1341.1161151327 C 633.69748732923 1341.1161151327 627.85348732923 1338.2201151327 619.13248732923 1331.5711151327 C 616.87048732923 1329.5571151327 614.61148732923 1327.6861151327 612.31648732923 1326.1071151327 C 610.58948732923 1324.6651151327 608.77448732923 1323.1141151327 606.85548732923 1321.4361151327 C 610.15248732923 1317.9821151327 613.55048732923 1316.2961151327 617.20648732923 1316.2961151327 C 620.13248732923 1316.2961151327 623.13748732923 1317.3541151327 626.22148732923 1319.0051151327 C 628.71148732923 1320.6721151327 631.01548732923 1322.1421151327 633.18248732923 1323.4641151327 C 634.66748732923 1324.5321151327 636.17448732923 1325.6541151327 637.69648732923 1326.7931151327 Z M 654.86248732923 1326.8891151327 C 650.64748732923 1326.8891151327 644.74448732923 1324.5331151327 636.11148732923 1319.2851151327 C 633.66248732923 1317.5281151327 631.23648732923 1315.9121151327 628.80048732923 1314.5911151327 C 626.93248732923 1313.3381151327 624.96548732923 1311.9861151327 622.88448732923 1310.5221151327 C 626.16048732923 1306.2581151327 629.72048732923 1304.2581151327 633.98848732923 1304.2581151327 C 636.54448732923 1304.2581151327 639.23548732923 1305.0011151327 642.02748732923 1306.1521151327 C 644.70248732923 1307.5631151327 647.19148732923 1308.8181151327 649.48748732923 1309.9081151327 C 651.01348732923 1310.7791151327 652.55548732923 1311.6911151327 654.12348732923 1312.6241151327 C 657.82848732923 1314.8291151327 661.64448732923 1317.1021151327 665.54248732923 1318.9281151327 C 662.13248732923 1324.2101151327 659.34148732923 1326.8891151327 654.86248732923 1326.8891151327 Z M 669.87148732923 1310.9911151327 C 665.73248732923 1310.9911151327 660.02148732923 1309.2331151327 651.81448732923 1305.3531151327 C 649.17048732923 1303.8471151327 646.56748732923 1302.4761151327 643.98148732923 1301.4101151327 C 641.99748732923 1300.3611151327 639.91048732923 1299.2281151327 637.69048732923 1297.9901151327 C 640.81748732923 1292.9041151327 644.63748732923 1290.5211151327 649.60948732923 1290.5211151327 C 651.67748732923 1290.5211151327 653.86848732923 1290.9291151327 656.14948732923 1291.5921151327 C 658.99048732923 1292.7281151327 661.60848732923 1293.7171151327 664.02848732923 1294.5691151327 C 665.65248732923 1295.2821151327 667.30148732923 1296.0421151327 668.97548732923 1296.8131151327 C 672.89148732923 1298.6201151327 676.92348732923 1300.4791151327 680.98848732923 1301.8871151327 C 677.87348732923 1308.0471151327 675.17448732923 1310.9911151327 669.87148732923 1310.9911151327 Z M 682.72048732923 1293.6321151327 C 678.74948732923 1293.6321151327 673.31548732923 1292.4091151327 665.84848732923 1289.7931151327 C 663.12648732923 1288.6041151327 660.45548732923 1287.5471151327 657.83148732923 1286.7661151327 C 655.71248732923 1285.9181151327 653.48248732923 1284.9961151327 651.10148732923 1283.9791151327 C 653.98648732923 1277.9311151327 658.02948732923 1275.2121151327 664.03448732923 1275.2121151327 C 665.56148732923 1275.2121151327 667.16748732923 1275.4001151327 668.82448732923 1275.6981151327 C 671.75448732923 1276.5261151327 674.44348732923 1277.2301151327 676.92348732923 1277.8191151327 C 678.61448732923 1278.3591151327 680.33748732923 1278.9421151327 682.09148732923 1279.5371151327 C 686.17548732923 1280.9261151327 690.38148732923 1282.3531151327 694.57148732923 1283.3271151327 C 691.86448732923 1290.4351151327 689.22548732923 1293.6321151327 682.72048732923 1293.6321151327 Z M 692.93648732923 1275.0581151327 C 689.23948732923 1275.0581151327 684.50948732923 1274.3701151327 678.34248732923 1272.9131151327 C 675.48948732923 1272.0071151327 672.71148732923 1271.2361151327 670.00248732923 1270.7271151327 C 667.80348732923 1270.1041151327 665.47048732923 1269.4131151327 662.97248732923 1268.6431151327 C 665.48848732923 1261.5191151327 669.86848732923 1258.4481151327 677.35648732923 1258.4481151327 C 678.13748732923 1258.4481151327 678.94248732923 1258.4921151327 679.75648732923 1258.5531151327 C 682.74248732923 1259.0671151327 685.50448732923 1259.4931151327 688.01948732923 1259.8191151327 C 689.75448732923 1260.1791151327 691.52548732923 1260.5781151327 693.33348732923 1260.9861151327 C 697.54048732923 1261.9381151327 701.87048732923 1262.9201151327 706.14148732923 1263.4511151327 C 704.08048732923 1271.3301151327 701.67548732923 1275.0581151327 692.93648732923 1275.0581151327 Z M 699.63548732923 1255.5881151327 C 696.64248732923 1255.5881151327 693.08148732923 1255.3191151327 688.83748732923 1254.7761151327 C 685.93348732923 1254.1801151327 683.12548732923 1253.7051151327 680.40848732923 1253.4861151327 C 678.14348732923 1253.0931151327 675.75848732923 1252.6551151327 673.17948732923 1252.1471151327 C 675.09548732923 1244.1501151327 679.75648732923 1240.6541151327 688.77848732923 1240.3611151327 C 691.79848732923 1240.5601151327 694.55048732923 1240.6881151327 697.07348732923 1240.7511151327 C 698.86148732923 1240.9271151327 700.68848732923 1241.1381151327 702.57048732923 1241.3601151327 C 706.85048732923 1241.8671151327 711.26448732923 1242.3901151327 715.56648732923 1242.4711151327 C 714.17048732923 1251.5691151327 711.69548732923 1255.5881151327 699.63548732923 1255.5881151327 Z M 705.08548732923 1220.8351151327 C 706.60448732923 1220.8351151327 708.14848732923 1220.8561151327 709.70448732923 1220.8761151327 C 711.30148732923 1220.8971151327 712.91048732923 1220.9181151327 714.51848732923 1220.9181151327 C 716.83948732923 1220.9181151327 719.75748732923 1220.8801151327 722.75148732923 1220.6221151327 C 722.32248732923 1230.7921151327 720.21448732923 1235.6901151327 700.35948732923 1235.6901151327 C 699.41248732923 1235.6901151327 698.41048732923 1235.6751151327 697.38048732923 1235.6501151327 C 694.86348732923 1235.4041151327 692.41648732923 1235.2281151327 690.03148732923 1235.2281151327 C 689.66048732923 1235.2281151327 689.30948732923 1235.2471151327 688.94948732923 1235.2571151327 C 686.66048732923 1235.1041151327 684.22248732923 1234.9131151327 681.60348732923 1234.6781151327 C 682.77948732923 1225.8191151327 687.75048732923 1222.4191151327 696.25348732923 1221.3101151327 C 699.13748732923 1221.1941151327 701.80048732923 1221.0401151327 704.24848732923 1220.8431151327 C 704.53148732923 1220.8421151327 704.79948732923 1220.8351151327 705.08548732923 1220.8351151327 Z M 714.66048732923 1199.7581151327 C 718.95548732923 1199.3621151327 723.37948732923 1198.9571151327 727.60248732923 1198.1441151327 C 727.90248732923 1203.4731151327 727.47948732923 1206.9771151327 725.12748732923 1209.5491151327 C 722.14048732923 1212.8201151327 715.66248732923 1214.7721151327 703.98648732923 1215.7331151327 C 701.43448732923 1215.7391151327 698.40248732923 1215.7991151327 695.29248732923 1216.2361151327 C 693.05148732923 1216.3211151327 690.68648732923 1216.3841151327 688.15548732923 1216.4231151327 C 688.39048732923 1207.2061151327 693.13448732923 1203.5071151327 701.19748732923 1201.6151151327 C 704.05148732923 1201.2001151327 706.69248732923 1200.7731151327 709.10648732923 1200.3221151327 C 710.86848732923 1200.1191151327 712.71948732923 1199.9371151327 714.66048732923 1199.7581151327 Z"/><path fill="#ed3926" transform="matrix(0.4980897389482729 0 0 0.4980897389482729 7.998149507308872 -79.30781103785681)" d="M 662.37348732923 1163.0641151327 L 662.37648732923 1163.0641151327 L 637.94848732923 1157.6331151327 C 636.68848732923 1127.6751151327 624.92848732923 1099.2301151327 604.66748732923 1077.1101151327 L 622.94748732923 1050.8811151327 L 596.71848732923 1069.1621151327 C 574.59048732923 1048.8961151327 546.16048732923 1037.1411151327 516.19548732923 1035.8801151327 L 510.76748732923 1011.4501151327 L 505.33748732923 1035.8821151327 C 475.38648732923 1037.1441151327 446.92548732923 1048.9151151327 424.81548732923 1069.1641151327 L 398.58248732923 1050.8821151327 L 416.86448732923 1077.1131151327 C 396.59148732923 1099.2491151327 384.84548732923 1127.6681151327 383.58048732923 1157.6371151327 L 359.15548732923 1163.0651151327 L 383.58348732923 1168.4951151327 C 384.84448732923 1198.4431151327 396.61448732923 1226.9061151327 416.86348732923 1249.0161151327 L 398.58148732923 1275.2461151327 L 424.81048732923 1256.9661151327 C 446.94448732923 1277.2381151327 475.36948732923 1288.9871151327 505.33648732923 1290.2511151327 L 510.76248732923 1314.6751151327 L 510.76648732923 1314.6671151327 L 516.19148732923 1290.2491151327 C 546.16548732923 1288.9851151327 574.58448732923 1277.2381151327 596.71848732923 1256.9661151327 L 622.94648732923 1275.2461151327 L 604.66648732923 1249.0171151327 C 624.93148732923 1226.8901151327 636.68748732923 1198.4531151327 637.94848732923 1168.4921151327 L 662.37348732923 1163.0641151327 Z M 631.97048732923 1156.3061151327 L 611.13848732923 1151.6761151327 C 608.97948732923 1132.4211151327 601.40948732923 1114.4161151327 589.15848732923 1099.3641151327 L 601.19848732923 1082.0891151327 C 619.61648732923 1102.6451151327 630.45148732923 1128.7611151327 631.97048732923 1156.3061151327 Z M 523.51248732923 1068.8041151327 C 540.31848732923 1071.0351151327 556.00848732923 1077.6481151327 569.42148732923 1088.1861151327 L 533.39948732923 1113.2911151327 L 523.51248732923 1068.8041151327 Z M 585.64148732923 1104.4111151327 C 596.13248732923 1117.7731151327 602.78148732923 1133.5141151327 605.02548732923 1150.3181151327 L 560.53648732923 1140.4301151327 L 585.64148732923 1104.4111151327 Z M 554.47848732923 1138.7791151327 L 538.57848732923 1135.2461151327 L 535.04748732923 1119.3521151327 L 599.16448732923 1074.6641151327 L 554.47848732923 1138.7791151327 Z M 591.73848732923 1072.6311151327 L 574.46248732923 1084.6721151327 C 559.35048732923 1072.3671151327 541.40848732923 1064.8361151327 522.15348732923 1062.6921151327 L 517.52548732923 1041.8631151327 C 545.07448732923 1043.3841151327 571.17848732923 1054.2061151327 591.73848732923 1072.6311151327 Z M 504.00748732923 1041.8601151327 L 499.37848732923 1062.6921151327 C 480.12248732923 1064.8531151327 462.12948732923 1072.4121151327 447.06948732923 1084.6731151327 L 429.79448732923 1072.6331151327 C 450.34248732923 1054.2251151327 476.47148732923 1043.3791151327 504.00748732923 1041.8601151327 Z M 460.99348732923 1140.4311151327 L 416.50148732923 1150.3181151327 C 418.73348732923 1133.5101151327 425.34648732923 1117.8251151327 435.89048732923 1104.4111151327 L 460.99348732923 1140.4311151327 Z M 488.13548732923 1113.2921151327 L 452.11548732923 1088.1911151327 C 465.48548732923 1077.6891151327 481.21348732923 1071.0521151327 498.02148732923 1068.8081151327 L 488.13548732923 1113.2921151327 Z M 486.48448732923 1119.3531151327 L 482.95448732923 1135.2491151327 L 467.05548732923 1138.7821151327 L 422.36748732923 1074.6651151327 L 486.48448732923 1119.3531151327 Z M 420.33548732923 1082.0921151327 L 432.37648732923 1099.3691151327 C 420.06648732923 1114.4851151327 412.54248732923 1132.4181151327 410.39648732923 1151.6761151327 L 389.56948732923 1156.3031151327 C 391.08948732923 1128.7551151327 401.90348732923 1102.6591151327 420.33548732923 1082.0921151327 Z M 389.56248732923 1169.8211151327 L 410.39548732923 1174.4511151327 C 412.55548732923 1193.7041151327 420.12448732923 1211.7111151327 432.37448732923 1226.7591151327 L 420.33448732923 1244.0341151327 C 401.92348732923 1223.4871151327 391.07948732923 1197.3601151327 389.56248732923 1169.8211151327 Z M 498.01648732923 1257.3111151327 C 481.20948732923 1255.0691151327 465.49948732923 1248.4591151327 452.10948732923 1237.9391151327 L 488.13348732923 1212.8351151327 L 498.01648732923 1257.3111151327 Z M 435.89048732923 1221.7121151327 C 425.40148732923 1208.3531151327 418.75348732923 1192.6141151327 416.50848732923 1175.8111151327 L 460.99348732923 1185.6961151327 L 435.89048732923 1221.7121151327 Z M 467.05548732923 1187.3441151327 L 482.95248732923 1190.8741151327 L 486.48448732923 1206.7741151327 L 422.36748732923 1251.4601151327 L 467.05548732923 1187.3441151327 Z M 429.79348732923 1253.4941151327 L 447.06848732923 1241.4531151327 C 462.15648732923 1253.7371151327 480.12048732923 1261.3011151327 499.38148732923 1263.4521151327 L 504.00748732923 1284.2631151327 C 476.45648732923 1282.7441151327 450.35848732923 1271.9261151327 429.79348732923 1253.4941151327 Z M 510.76348732923 1163.0641151327 L 488.15348732923 1185.6721151327 L 386.41348732923 1163.0641151327 L 510.76348732923 1163.0641151327 L 488.15548732923 1140.4531151327 L 510.76348732923 1038.7111151327 L 510.76348732923 1163.0641151327 L 533.37648732923 1140.4531151327 L 635.11748732923 1163.0601151327 L 635.11448732923 1163.0641151327 L 510.76348732923 1163.0641151327 L 533.37648732923 1185.6721151327 L 510.76748732923 1287.4061151327 L 510.76348732923 1163.0641151327 Z M 560.53648732923 1185.6951151327 L 605.01548732923 1175.8101151327 C 602.77348732923 1192.6001151327 596.15248732923 1208.3141151327 585.63348732923 1221.7041151327 L 560.53648732923 1185.6951151327 Z M 533.39748732923 1212.8341151327 L 569.41548732923 1237.9361151327 C 556.04748732923 1248.4381151327 540.32548732923 1255.0771151327 523.51148732923 1257.3191151327 L 533.39748732923 1212.8341151327 Z M 517.52448732923 1284.2601151327 L 522.15348732923 1263.4351151327 C 541.41748732923 1261.2761151327 559.40648732923 1253.7181151327 574.46648732923 1241.4551151327 L 591.73848732923 1253.4951151327 C 571.17448732923 1271.9261151327 545.07848732923 1282.7411151327 517.52448732923 1284.2601151327 Z M 535.04848732923 1206.7751151327 L 538.57848732923 1190.8751151327 L 554.47848732923 1187.3451151327 L 599.16448732923 1251.4611151327 L 535.04848732923 1206.7751151327 Z M 601.19848732923 1244.0361151327 L 589.15848732923 1226.7621151327 C 601.44148732923 1211.6691151327 608.99948732923 1193.6901151327 611.14948732923 1174.4461151327 L 631.96948732923 1169.8211151327 C 630.45048732923 1197.3651151327 619.62148732923 1223.4741151327 601.19848732923 1244.0361151327 Z"/><path id="text" fill="#333333" transform="matrix(0.5375628171467964 0 0 0.5375628171467964 240.5922709612548 -43.52192488004783)" d="M 304.88133287849 976.8134165191 L 283.37733287849 1041.3254165191 C 282.22533287849 1044.2694165191 280.17733287849 1045.7414165191 277.23333287849 1045.7414165191 C 274.16133287849 1045.7414165191 272.04933287849 1044.2694165191 270.89733287849 1041.3254165191 L 249.68133287849 976.8134165191 L 263.50533287849 976.8134165191 L 277.23333287849 1021.3574165191 L 290.96133287849 976.8134165191 L 304.88133287849 976.8134165191 Z M 363.24933287849 1007.8214165191 L 363.24933287849 1013.0054165191 C 363.24933287849 1024.4614165191 361.08933287849 1032.7814165191 356.76933287849 1037.9654165191 C 352.44933287849 1043.1494165191 345.52133287849 1045.7414165191 335.98533287849 1045.7414165191 C 326.44933287849 1045.7414165191 319.55333287849 1043.1494165191 315.29733287849 1037.9654165191 C 311.04133287849 1032.7814165191 308.91333287849 1024.3654165191 308.91333287849 1012.7174165191 L 308.91333287849 1007.7254165191 C 308.91333287849 997.1014165191 311.07333287849 989.1974165191 315.39333287849 984.0134165191 C 319.71333287849 978.8294165191 326.56133287849 976.2374165191 335.93733287849 976.2374165191 C 345.31333287849 976.2374165191 352.20933287849 978.8614165191 356.62533287849 984.1094165191 C 361.04133287849 989.3574165191 363.24933287849 997.2614165191 363.24933287849 1007.8214165191 Z M 349.90533287849 1012.7174165191 L 349.90533287849 1009.1654165191 C 349.90533287849 1003.0214165191 349.13733287849 998.1254165191 347.60133287849 994.4774165191 C 345.80933287849 990.2534165191 341.96933287849 988.1414165191 336.08133287849 988.1414165191 C 330.12933287849 988.1414165191 326.25733287849 990.2534165191 324.46533287849 994.4774165191 C 322.99333287849 997.9334165191 322.25733287849 1002.8294165191 322.25733287849 1009.1654165191 L 322.25733287849 1012.7174165191 C 322.25733287849 1020.9734165191 323.40933287849 1026.5414165191 325.71333287849 1029.4214165191 C 326.60933287849 1030.6374165191 327.93733287849 1031.6774165191 329.69733287849 1032.5414165191 C 331.45733287849 1033.4054165191 333.56933287849 1033.8374165191 336.03333287849 1033.8374165191 C 338.49733287849 1033.8374165191 340.59333287849 1033.4214165191 342.32133287849 1032.5894165191 C 344.04933287849 1031.7574165191 345.39333287849 1030.7334165191 346.35333287849 1029.5174165191 C 347.31333287849 1028.3014165191 348.04933287849 1026.7014165191 348.56133287849 1024.7174165191 C 349.45733287849 1021.5814165191 349.90533287849 1017.5814165191 349.90533287849 1012.7174165191 Z M 421.61733287849 976.8134165191 L 401.07333287849 1017.1334165191 L 401.07333287849 1045.1654165191 L 387.82533287849 1045.1654165191 L 387.82533287849 1017.1334165191 L 367.28133287849 976.8134165191 L 381.77733287849 976.8134165191 L 394.54533287849 1004.3654165191 L 407.12133287849 976.8134165191 L 421.61733287849 976.8134165191 Z M 481.71333287849 1045.1654165191 L 467.79333287849 1045.1654165191 L 463.95333287849 1033.3574165191 L 441.00933287849 1033.3574165191 L 437.26533287849 1045.1654165191 L 423.34533287849 1045.1654165191 L 445.23333287849 982.5734165191 C 446.19333287849 980.3974165191 447.26533287849 978.8934165191 448.44933287849 978.0614165191 C 449.63333287849 977.2294165191 451.08933287849 976.8134165191 452.81733287849 976.8134165191 C 454.54533287849 976.8134165191 455.93733287849 977.1974165191 456.99333287849 977.9654165191 C 458.04933287849 978.7334165191 458.99333287849 980.2694165191 459.82533287849 982.5734165191 L 481.71333287849 1045.1654165191 Z M 460.88133287849 1022.1254165191 L 452.81733287849 995.0534165191 L 444.36933287849 1022.1254165191 L 460.88133287849 1022.1254165191 Z M 486.89733287849 1013.0054165191 L 486.89733287849 1004.5574165191 C 486.89733287849 995.6614165191 489.23333287849 988.7174165191 493.90533287849 983.7254165191 C 498.57733287849 978.7334165191 505.04133287849 976.2374165191 513.29733287849 976.2374165191 C 521.55333287849 976.2374165191 528.17733287849 978.7334165191 533.16933287849 983.7254165191 C 536.68933287849 987.2454165191 538.44933287849 992.5254165191 538.44933287849 999.5654165191 L 525.96933287849 999.5654165191 C 525.96933287849 991.9494165191 521.90533287849 988.1414165191 513.77733287849 988.1414165191 C 511.34533287849 988.1414165191 509.28133287849 988.6054165191 507.58533287849 989.5334165191 C 505.88933287849 990.4614165191 504.62533287849 991.5334165191 503.79333287849 992.7494165191 C 502.96133287849 993.9654165191 502.32133287849 995.7574165191 501.87333287849 998.1254165191 C 501.42533287849 1000.4934165191 501.16933287849 1002.4774165191 501.10533287849 1004.0774165191 C 501.04133287849 1005.6774165191 501.00933287849 1007.8214165191 501.00933287849 1010.5094165191 C 501.00933287849 1013.1974165191 501.02533287849 1015.0054165191 501.05733287849 1015.9334165191 C 501.08933287849 1016.8614165191 501.18533287849 1018.3654165191 501.34533287849 1020.4454165191 C 501.50533287849 1022.5254165191 501.76133287849 1024.0134165191 502.11333287849 1024.9094165191 C 502.46533287849 1025.8054165191 502.97733287849 1026.9574165191 503.64933287849 1028.3654165191 C 504.32133287849 1029.7734165191 505.16933287849 1030.7654165191 506.19333287849 1031.3414165191 C 508.81733287849 1033.0054165191 511.79333287849 1033.8374165191 515.12133287849 1033.8374165191 C 520.68933287849 1033.8374165191 524.62533287849 1031.4694165191 526.92933287849 1026.7334165191 L 526.92933287849 1022.1254165191 L 518.67333287849 1022.1254165191 L 518.67333287849 1010.9894165191 L 538.35333287849 1010.9894165191 L 538.35333287849 1031.6294165191 C 536.36933287849 1036.3014165191 533.23333287849 1039.8214165191 528.94533287849 1042.1894165191 C 524.65733287849 1044.5574165191 519.79333287849 1045.7414165191 514.35333287849 1045.7414165191 C 504.68933287849 1045.7414165191 497.69733287849 1043.0374165191 493.37733287849 1037.6294165191 C 489.05733287849 1032.2214165191 486.89733287849 1024.0134165191 486.89733287849 1013.0054165191 Z M 597.29733287849 1045.1654165191 L 573.10533287849 1045.1654165191 C 565.42533287849 1045.1654165191 560.03333287849 1043.8374165191 556.92933287849 1041.1814165191 C 553.82533287849 1038.5254165191 552.27333287849 1033.8374165191 552.27333287849 1027.1174165191 L 552.27333287849 976.8134165191 L 597.29733287849 976.8134165191 L 597.29733287849 988.7174165191 L 565.61733287849 988.7174165191 L 565.61733287849 1004.7494165191 L 587.79333287849 1004.7494165191 L 586.83333287849 1016.6534165191 L 565.61733287849 1016.6534165191 L 565.61733287849 1026.1574165191 C 565.61733287849 1028.8454165191 566.22533287849 1030.7014165191 567.44133287849 1031.7254165191 C 568.65733287849 1032.7494165191 570.86533287849 1033.2614165191 574.06533287849 1033.2614165191 L 597.29733287849 1033.2614165191 L 597.29733287849 1045.1654165191 Z M 662.09733287849 1045.1654165191 L 646.64133287849 1045.1654165191 L 633.29733287849 1019.8214165191 L 623.69733287849 1019.8214165191 L 623.69733287849 1045.1654165191 L 610.35333287849 1045.1654165191 L 610.35333287849 991.5014165191 C 610.35333287849 986.3814165191 611.53733287849 982.6534165191 613.90533287849 980.3174165191 C 616.27333287849 977.9814165191 620.24133287849 976.8134165191 625.80933287849 976.8134165191 L 637.13733287849 976.8134165191 C 643.92133287849 976.8134165191 649.31333287849 978.8774165191 653.31333287849 983.0054165191 C 657.31333287849 987.1334165191 659.31333287849 992.3654165191 659.31333287849 998.7014165191 C 659.31333287849 1003.3094165191 658.11333287849 1007.2934165191 655.71333287849 1010.6534165191 C 653.31333287849 1014.0134165191 650.35333287849 1016.3334165191 646.83333287849 1017.6134165191 L 662.09733287849 1045.1654165191 Z M 643.23333287849 1005.7574165191 C 645.05733287849 1003.8054165191 645.96933287849 1001.3734165191 645.96933287849 998.4614165191 C 645.96933287849 995.5494165191 645.08933287849 993.1974165191 643.32933287849 991.4054165191 C 641.56933287849 989.6134165191 639.21733287849 988.7174165191 636.27333287849 988.7174165191 L 629.64933287849 988.7174165191 C 625.68133287849 988.7174165191 623.69733287849 990.7334165191 623.69733287849 994.7654165191 L 623.69733287849 1008.6854165191 L 636.27333287849 1008.6854165191 C 639.08933287849 1008.6854165191 641.40933287849 1007.7094165191 643.23333287849 1005.7574165191 Z M 748.68933287849 976.8134165191 L 748.68933287849 1038.2534165191 C 748.68933287849 1040.3654165191 748.04933287849 1042.1734165191 746.76933287849 1043.6774165191 C 745.48933287849 1045.1814165191 743.98533287849 1045.9334165191 742.25733287849 1045.9334165191 C 737.84133287849 1045.9334165191 734.22533287849 1043.3734165191 731.40933287849 1038.2534165191 L 707.79333287849 1001.2934165191 L 707.79333287849 1045.1654165191 L 694.44933287849 1045.1654165191 L 694.44933287849 976.8134165191 L 707.31333287849 976.8134165191 L 735.34533287849 1021.5494165191 L 735.34533287849 976.8134165191 L 748.68933287849 976.8134165191 Z M 814.35333287849 1045.1654165191 L 800.43333287849 1045.1654165191 L 796.59333287849 1033.3574165191 L 773.64933287849 1033.3574165191 L 769.90533287849 1045.1654165191 L 755.98533287849 1045.1654165191 L 777.87333287849 982.5734165191 C 778.83333287849 980.3974165191 779.90533287849 978.8934165191 781.08933287849 978.0614165191 C 782.27333287849 977.2294165191 783.72933287849 976.8134165191 785.45733287849 976.8134165191 C 787.18533287849 976.8134165191 788.57733287849 977.1974165191 789.63333287849 977.9654165191 C 790.68933287849 978.7334165191 791.63333287849 980.2694165191 792.46533287849 982.5734165191 L 814.35333287849 1045.1654165191 Z M 793.52133287849 1022.1254165191 L 785.45733287849 995.0534165191 L 777.00933287849 1022.1254165191 L 793.52133287849 1022.1254165191 Z M 873.96933287849 976.8134165191 L 873.96933287849 1021.7414165191 C 873.96933287849 1029.1654165191 871.45733287849 1035.0214165191 866.43333287849 1039.3094165191 C 861.40933287849 1043.5974165191 855.21733287849 1045.7414165191 847.85733287849 1045.7414165191 C 840.49733287849 1045.7414165191 834.30533287849 1043.5974165191 829.28133287849 1039.3094165191 C 824.25733287849 1035.0214165191 821.74533287849 1029.1654165191 821.74533287849 1021.7414165191 L 821.74533287849 976.8134165191 L 835.08933287849 976.8134165191 L 835.08933287849 1021.2614165191 C 835.08933287849 1025.4854165191 836.25733287849 1028.6374165191 838.59333287849 1030.7174165191 C 840.92933287849 1032.7974165191 844.01733287849 1033.8374165191 847.85733287849 1033.8374165191 C 851.69733287849 1033.8374165191 854.80133287849 1032.7974165191 857.16933287849 1030.7174165191 C 859.53733287849 1028.6374165191 860.72133287849 1025.4854165191 860.72133287849 1021.2614165191 L 860.72133287849 976.8134165191 L 873.96933287849 976.8134165191 Z M 932.33733287849 988.7174165191 L 914.00133287849 988.7174165191 L 914.00133287849 1045.1654165191 L 900.65733287849 1045.1654165191 L 900.65733287849 988.7174165191 L 882.41733287849 988.7174165191 L 882.41733287849 976.8134165191 L 932.33733287849 976.8134165191 L 932.33733287849 988.7174165191 Z M 956.04933287849 1045.1654165191 L 942.70533287849 1045.1654165191 L 942.70533287849 976.8134165191 L 956.04933287849 976.8134165191 L 956.04933287849 1045.1654165191 Z M 1006.54533287849 1018.6694165191 L 1018.92933287849 1018.6694165191 C 1018.92933287849 1027.3734165191 1016.75333287849 1034.0614165191 1012.40133287849 1038.7334165191 C 1008.04933287849 1043.4054165191 1001.90533287849 1045.7414165191 993.96933287849 1045.7414165191 C 976.49733287849 1045.7414165191 967.76133287849 1035.4694165191 967.76133287849 1014.9254165191 L 967.76133287849 1009.1654165191 C 967.76133287849 992.9734165191 972.24133287849 982.8294165191 981.20133287849 978.7334165191 C 984.72133287849 977.0694165191 988.97733287849 976.2374165191 993.96933287849 976.2374165191 C 1001.26533287849 976.2374165191 1007.20133287849 978.2374165191 1011.77733287849 982.2374165191 C 1016.35333287849 986.2374165191 1018.64133287849 992.0134165191 1018.64133287849 999.5654165191 L 1006.16133287849 999.5654165191 C 1005.45733287849 995.7894165191 1004.20933287849 992.9414165191 1002.41733287849 991.0214165191 C 1000.62533287849 989.1014165191 997.80933287849 988.1414165191 993.96933287849 988.1414165191 C 989.48933287849 988.1414165191 986.16133287849 989.5494165191 983.98533287849 992.3654165191 C 982.44933287849 994.3494165191 981.55333287849 997.7414165191 981.29733287849 1002.5414165191 C 981.16933287849 1004.0774165191 981.10533287849 1006.1574165191 981.10533287849 1008.7814165191 L 981.10533287849 1014.7334165191 C 981.10533287849 1022.0934165191 982.12933287849 1027.1174165191 984.17733287849 1029.8054165191 C 986.28933287849 1032.4934165191 989.56933287849 1033.8374165191 994.01733287849 1033.8374165191 C 998.46533287849 1033.8374165191 1001.53733287849 1032.6054165191 1003.23333287849 1030.1414165191 C 1004.92933287849 1027.6774165191 1006.03333287849 1023.8534165191 1006.54533287849 1018.6694165191 Z M 1082.09733287849 1045.1654165191 L 1068.17733287849 1045.1654165191 L 1064.33733287849 1033.3574165191 L 1041.39333287849 1033.3574165191 L 1037.64933287849 1045.1654165191 L 1023.72933287849 1045.1654165191 L 1045.61733287849 982.5734165191 C 1046.57733287849 980.3974165191 1047.64933287849 978.8934165191 1048.83333287849 978.0614165191 C 1050.01733287849 977.2294165191 1051.47333287849 976.8134165191 1053.20133287849 976.8134165191 C 1054.92933287849 976.8134165191 1056.32133287849 977.1974165191 1057.37733287849 977.9654165191 C 1058.43333287849 978.7334165191 1059.37733287849 980.2694165191 1060.20933287849 982.5734165191 L 1082.09733287849 1045.1654165191 Z M 1061.26533287849 1022.1254165191 L 1053.20133287849 995.0534165191 L 1044.75333287849 1022.1254165191 L 1061.26533287849 1022.1254165191 Z M 1133.64933287849 1045.1654165191 L 1113.29733287849 1045.1654165191 C 1105.61733287849 1045.1654165191 1100.06533287849 1043.6774165191 1096.64133287849 1040.7014165191 C 1093.21733287849 1037.7254165191 1091.50533287849 1032.8774165191 1091.50533287849 1026.1574165191 L 1091.50533287849 976.8134165191 L 1104.84933287849 976.8134165191 L 1104.84933287849 1026.1574165191 C 1104.84933287849 1028.8454165191 1105.45733287849 1030.7014165191 1106.67333287849 1031.7254165191 C 1107.88933287849 1032.7494165191 1110.09733287849 1033.2614165191 1113.29733287849 1033.2614165191 L 1133.64933287849 1033.2614165191 L 1133.64933287849 1045.1654165191 Z"/></svg>